<?xml version="1.0" standalone="no"?>
<!DOCTYPE svg PUBLIC "-//W3C//DTD SVG 20010904//EN"
 "http://www.w3.org/TR/2001/REC-SVG-20010904/DTD/svg10.dtd">
<svg version="1.0" xmlns="http://www.w3.org/2000/svg"
 width="1280.000000pt" height="720.000000pt" viewBox="0 0 1280.000000 720.000000"
 preserveAspectRatio="xMidYMid meet">

<g transform="translate(0.000000,720.000000) scale(0.100000,-0.100000)"
fill="#000000" stroke="none">
<path d="M0 7035 c0 -103 4 -165 10 -165 6 0 10 -95 10 -265 0 -170 -4 -265
-10 -265 -7 0 -10 -1063 -10 -3170 l0 -3170 6395 0 6395 0 0 1260 c0 833 -3
1260 -10 1260 -6 0 -10 31 -10 74 0 41 5 78 10 81 13 8 13 82 0 90 -13 8 -13
155 0 155 7 0 10 678 10 2015 l0 2015 -60 0 c-56 0 -61 2 -70 26 -14 35 -12
118 2 132 7 7 38 12 70 12 l58 0 0 40 0 40 -6395 0 -6395 0 0 -165z m279 9
c-2 -57 -9 -76 -33 -80 -9 -1 -14 2 -10 7 3 5 -1 9 -8 9 -10 0 -10 2 1 9 11 7
12 23 7 70 l-7 61 25 -12 c23 -10 26 -17 25 -64z m12035 63 c14 -10 16 -25 14
-82 l-3 -70 -54 -3 c-98 -6 -101 -3 -101 82 0 50 4 76 13 79 25 11 114 7 131
-6z m244 4 c9 -5 12 -29 10 -82 l-3 -74 -54 -3 c-98 -6 -101 -3 -101 82 0 50
4 76 13 79 20 9 121 7 135 -2z m-11988 -31 c0 -5 -5 -10 -11 -10 -5 0 -7 5 -4
10 3 6 8 10 11 10 2 0 4 -4 4 -10z m40 -51 c0 -27 -4 -49 -10 -49 -5 0 -10 25
-10 56 0 34 4 53 10 49 6 -3 10 -28 10 -56z m850 6 c0 -30 -4 -55 -10 -55 -11
0 -14 93 -3 103 12 12 13 8 13 -48z m-937 35 c-13 -5 -23 -14 -23 -20 0 -6 10
-15 23 -20 l22 -9 -22 0 c-16 -1 -23 -7 -23 -21 0 -11 -4 -20 -9 -20 -5 0 -8
8 -6 18 2 9 4 32 4 50 1 28 4 32 29 31 26 0 26 -1 5 -9z m395 3 c-10 -2 -18
-13 -18 -24 0 -11 7 -19 18 -20 16 -1 16 -2 0 -6 -26 -7 -22 -33 5 -34 21 0
21 -1 2 -8 -34 -14 -45 -2 -45 50 0 47 1 49 28 48 16 -1 20 -3 10 -6z m102
-43 c0 -48 -1 -50 -29 -50 -42 0 -58 23 -36 56 10 15 22 23 31 20 8 -3 14 1
14 9 0 8 5 15 10 15 6 0 10 -22 10 -50z m73 -3 c-4 -19 -1 -32 8 -39 11 -7 9
-8 -6 -6 -15 2 -21 12 -23 37 -2 18 -1 40 3 49 10 27 25 -7 18 -41z m257 43
c0 -5 -6 -7 -14 -4 -27 10 -27 -16 0 -39 16 -14 24 -29 20 -35 -8 -14 -66 -16
-66 -3 0 4 11 6 25 3 33 -6 32 7 -2 34 -24 19 -26 24 -14 38 15 17 51 22 51 6z
m299 -24 c-13 -14 -11 -54 4 -59 7 -4 6 -6 -4 -6 -12 -1 -18 10 -21 37 -6 49
-1 65 17 49 8 -7 10 -16 4 -21z m418 4 c8 -44 20 -45 34 -5 7 19 17 35 22 35
5 0 7 -6 4 -12 -2 -7 -10 -30 -18 -50 -7 -21 -18 -38 -25 -38 -7 0 -19 21 -28
47 -19 55 -19 53 -6 53 6 0 13 -14 17 -30z m543 21 c0 -5 -9 -7 -20 -4 -26 7
-50 -14 -50 -44 0 -25 17 -37 46 -31 17 3 17 4 0 21 -17 16 -16 17 3 17 16 0
21 -6 21 -25 0 -22 -4 -25 -35 -25 -24 0 -37 6 -45 19 -14 28 -13 38 10 61 20
20 70 28 70 11z m346 -6 c4 -8 1 -21 -5 -28 -8 -10 -6 -19 5 -35 8 -12 10 -22
5 -22 -6 0 -16 9 -23 20 -7 11 -16 20 -20 20 -5 0 -8 -9 -8 -20 0 -11 -4 -20
-10 -20 -5 0 -10 23 -10 50 0 49 1 50 30 50 18 0 33 -6 36 -15z m412 4 c-12
-7 -18 -22 -18 -49 0 -22 -4 -40 -9 -40 -6 0 -9 19 -9 41 0 25 -5 45 -13 50
-9 6 0 9 26 9 32 -1 36 -3 23 -11z m462 -39 c0 -27 -4 -50 -9 -50 -5 0 -9 23
-9 50 -1 28 3 50 9 50 5 0 9 -22 9 -50z m242 0 c13 0 18 8 18 25 0 14 5 25 10
25 6 0 10 -22 10 -50 0 -30 -4 -50 -11 -50 -6 0 -9 9 -6 20 4 16 0 20 -23 20
-23 0 -27 -4 -23 -20 3 -11 0 -20 -6 -20 -7 0 -11 20 -10 53 1 48 2 50 12 25
6 -16 19 -28 29 -28z m148 0 c0 -27 -4 -50 -10 -50 -5 0 -10 23 -10 50 0 28 5
50 10 50 6 0 10 -22 10 -50z m3217 -27 c-2 -16 -4 -3 -4 27 0 30 2 43 4 28 2
-16 2 -40 0 -55z m303 28 c0 -40 -4 -50 -20 -54 -24 -6 -43 15 -38 45 2 15 11
24 26 26 12 2 22 10 22 18 0 8 2 14 5 14 3 0 5 -22 5 -49z m390 -1 c0 -48 -1
-50 -29 -50 -17 0 -31 6 -35 16 -8 20 11 54 29 54 8 0 15 7 15 15 0 8 5 15 10
15 6 0 10 -22 10 -50z m-971 10 c16 47 24 31 9 -19 -16 -51 -34 -52 -47 -3
-16 54 -13 62 8 23 l18 -34 12 33z m369 23 c-24 -6 -23 -19 3 -37 29 -20 18
-46 -18 -45 -21 1 -23 3 -8 6 33 8 37 19 10 33 -38 21 -30 49 15 48 10 0 9 -2
-2 -5z m55 -42 c1 -23 -1 -41 -5 -41 -5 0 -8 11 -8 24 0 14 -4 28 -10 31 -6 4
-5 11 3 20 16 18 19 13 20 -34z m367 40 c-19 -5 -25 -13 -25 -36 0 -23 5 -30
25 -35 14 -3 20 -9 14 -12 -16 -11 -59 16 -62 39 -4 26 23 53 51 52 20 -1 20
-2 -3 -8z m-7270 -16 c15 -18 5 -35 -21 -35 -26 0 -24 -18 4 -23 15 -4 12 -5
-8 -4 -23 2 -31 7 -33 25 -6 42 33 68 58 37z m734 9 c9 -3 16 -15 16 -25 0
-14 -7 -19 -26 -19 -14 0 -23 -4 -19 -10 3 -5 16 -10 28 -10 17 0 19 -2 8 -9
-36 -23 -70 36 -39 67 14 14 12 14 32 6z m124 -11 c9 -16 11 -16 27 0 19 19
31 21 40 7 3 -5 -3 -10 -14 -10 -29 0 -28 -38 1 -49 18 -6 19 -9 5 -14 -16 -6
-47 16 -47 32 0 5 -11 6 -25 3 -31 -5 -32 -19 -2 -25 15 -4 12 -5 -8 -4 -23 2
-31 7 -33 25 -6 43 37 70 56 35z m232 2 c7 -8 10 -25 6 -40 -5 -19 -13 -25
-35 -25 -40 0 -54 35 -25 64 19 20 38 20 54 1z m78 3 c14 -14 16 -68 2 -68 -5
0 -10 14 -10 30 0 20 -5 30 -15 30 -10 0 -15 -10 -15 -30 0 -16 -4 -30 -10
-30 -5 0 -10 15 -10 34 0 32 4 37 41 45 3 0 10 -4 17 -11z m377 2 c3 -5 12 -7
20 -3 9 3 15 -1 15 -11 0 -9 5 -16 10 -16 6 0 10 7 10 15 0 20 19 19 26 0 6
-14 8 -13 20 2 11 14 13 15 14 3 0 -30 -13 -60 -26 -60 -8 0 -14 7 -14 15 0 8
-4 15 -10 15 -5 0 -10 -7 -10 -15 0 -22 -21 -18 -27 6 -4 12 -11 18 -20 15 -8
-3 -21 -6 -29 -6 -23 0 -16 -18 9 -23 15 -4 12 -5 -8 -4 -24 2 -31 7 -33 26
-5 33 37 66 53 41z m463 -2 c36 -36 -11 -96 -49 -62 -23 21 -24 37 -3 58 19
19 36 20 52 4z m416 6 c11 -4 16 -18 15 -43 -1 -35 -2 -35 -8 -7 -9 41 -28 43
-40 4 l-9 -33 -1 37 c-1 20 4 39 12 41 6 3 13 6 14 6 1 1 8 -2 17 -5z m336
-30 c0 -8 -10 -14 -25 -14 -14 0 -25 -4 -25 -10 0 -5 9 -10 21 -10 11 0 18 -4
14 -10 -6 -10 -36 -2 -47 14 -15 21 -8 47 15 55 24 10 47 -3 47 -25z m158 22
c15 -9 16 -66 2 -66 -5 0 -10 14 -10 30 0 17 -4 30 -10 30 -5 0 -10 -13 -10
-30 0 -16 -4 -30 -10 -30 -5 0 -10 14 -10 30 0 20 -5 30 -15 30 -10 0 -15 -10
-15 -30 0 -16 -4 -30 -10 -30 -5 0 -10 15 -10 34 0 25 5 36 18 38 24 6 67 3
80 -6z m120 2 c14 -14 16 -68 2 -68 -5 0 -10 14 -10 30 0 20 -5 30 -15 30 -10
0 -15 -10 -15 -30 0 -16 -4 -30 -10 -30 -5 0 -10 15 -10 34 0 32 4 37 41 45 3
0 10 -4 17 -11z m70 0 c7 -7 12 -25 12 -40 0 -24 -4 -28 -30 -28 -36 0 -40 21
-7 43 19 14 20 16 4 16 -10 1 -15 6 -12 11 8 13 18 13 33 -2z m386 6 c9 -3 16
-15 16 -25 0 -14 -7 -19 -27 -19 -29 0 -22 -15 12 -23 15 -4 14 -5 -7 -6 -36
-1 -53 28 -32 57 17 25 16 24 38 16z m124 -6 c19 -19 14 -56 -8 -68 -11 -6
-20 -7 -20 -3 0 4 -7 -1 -15 -11 -14 -18 -15 -16 -15 31 0 51 2 54 41 62 3 0
10 -4 17 -11z m-4138 -13 c5 3 11 1 14 -4 4 -5 -2 -8 -11 -7 -9 2 -18 8 -19
15 -1 6 0 7 3 1 2 -5 9 -8 13 -5z m410 -20 c0 -19 -4 -35 -10 -35 -5 0 -10 16
-10 35 0 19 5 35 10 35 6 0 10 -16 10 -35z m480 0 c0 -19 -4 -35 -10 -35 -5 0
-10 16 -10 35 0 19 5 35 10 35 6 0 10 -16 10 -35z m640 0 c0 -19 -4 -35 -10
-35 -5 0 -10 16 -10 35 0 19 5 35 10 35 6 0 10 -16 10 -35z m470 0 c0 -19 -4
-35 -10 -35 -5 0 -10 16 -10 35 0 19 5 35 10 35 6 0 10 -16 10 -35z m830 5 c0
-20 5 -30 15 -30 10 0 15 10 15 30 0 17 5 30 10 30 6 0 10 -16 10 -35 0 -32
-3 -35 -29 -35 -25 0 -29 4 -33 35 -2 19 0 35 4 35 4 0 8 -13 8 -30z m493 23
c-7 -2 -13 -18 -13 -34 0 -16 -4 -29 -10 -29 -5 0 -10 16 -10 35 0 30 3 35 23
34 12 0 16 -3 10 -6z m156 -30 c0 -29 -2 -33 -8 -18 -7 18 -4 55 5 55 2 0 4
-17 3 -37z m2941 27 c-13 -9 -12 -12 5 -26 19 -14 20 -13 26 13 7 28 7 28 8
-4 1 -40 31 -47 31 -8 0 14 4 25 8 25 5 0 9 -13 9 -29 l0 -30 -61 2 c-34 1
-51 3 -38 5 l22 3 -21 18 c-24 19 -19 41 9 41 15 0 15 -2 2 -10z m157 -30 c1
-34 1 -34 -5 -5 -8 36 -26 36 -30 0 -4 -34 -22 -32 -22 3 0 35 8 44 35 40 15
-2 20 -11 22 -38z m113 33 c-34 -13 -38 -40 -7 -53 22 -10 22 -10 -3 -7 -46 4
-36 68 10 66 13 -1 13 -1 0 -6z m52 -5 c-7 -7 -12 -22 -12 -35 0 -13 -4 -23
-10 -23 -11 0 -14 53 -3 63 3 4 13 7 22 7 12 0 12 -3 3 -12z m66 -26 c3 -29 1
-32 -22 -32 -31 0 -35 25 -8 47 16 14 16 14 -1 9 -11 -4 -16 -2 -12 5 14 21
40 4 43 -29z m242 3 c0 -19 -4 -35 -10 -35 -11 0 -14 53 -3 63 11 12 13 8 13
-28z m48 28 c-22 -6 -23 -19 -3 -27 27 -10 18 -36 -12 -35 l-28 1 25 7 25 7
-22 12 c-27 15 -20 42 11 41 16 -1 17 -2 4 -6z m150 -31 c3 -29 1 -32 -22 -32
-31 0 -35 25 -8 47 16 14 16 14 -1 9 -11 -4 -16 -2 -12 5 14 21 40 4 43 -29z
m225 -19 c7 2 15 17 18 33 6 27 7 27 8 -8 1 -34 -2 -38 -24 -38 -23 0 -25 4
-23 38 l1 37 4 -33 c3 -20 9 -32 16 -29z m137 -1 c-7 -13 -9 -8 -9 23 0 35 1
37 10 17 6 -15 5 -30 -1 -40z m80 37 c9 -15 8 -24 -1 -35 -18 -22 -53 -13 -57
15 -6 40 39 56 58 20z m198 -11 c4 -35 -29 -56 -52 -32 -19 18 -19 20 -5 45
16 30 53 21 57 -13z m136 26 c23 -9 20 -34 -4 -34 -11 0 -20 -4 -20 -10 0 -5
7 -10 16 -10 8 0 12 -5 9 -10 -9 -15 -45 7 -45 28 0 10 5 23 12 30 14 14 12
14 32 6z m-884 -30 c0 -32 22 -27 31 7 6 21 7 20 8 -9 1 -31 -1 -33 -26 -30
-22 2 -29 9 -31 31 -2 15 1 27 7 27 6 0 11 -12 11 -26z m-513 0 c-3 -3 -12 -4
-19 -1 -8 3 -5 6 6 6 11 1 17 -2 13 -5z m270 0 c-3 -3 -12 -4 -19 -1 -8 3 -5
6 6 6 11 1 17 -2 13 -5z m-6694 -294 c22 -26 25 -36 21 -92 -6 -82 -9 -88 -38
-88 -19 0 -25 -6 -28 -27 l-3 -28 -85 0 -85 0 0 95 0 95 33 3 c28 3 32 7 32
31 0 38 5 41 71 41 51 0 60 -3 82 -30z m430 -7 c-16 -6 -17 -33 -2 -33 6 0 4
-7 -5 -15 -21 -21 -26 -19 -26 13 0 33 7 42 29 41 10 0 12 -2 4 -6z m77 -23
c-9 -16 -9 -25 -1 -33 6 -6 11 -16 11 -21 0 -6 -8 -2 -16 9 -14 19 -16 19 -25
3 -7 -12 -21 -17 -42 -17 -29 2 -30 2 -5 6 38 6 55 29 40 54 -7 10 -8 19 -3
19 5 0 12 -6 15 -12 4 -10 9 -8 18 4 17 23 22 15 8 -12z m78 2 c3 -17 -2 -25
-17 -29 -11 -3 -22 -12 -24 -22 -3 -9 -5 6 -6 32 -1 45 1 48 22 45 14 -2 23
-11 25 -26z m130 16 c17 -17 15 -53 -3 -68 -12 -10 -21 -10 -40 -2 -29 13 -33
43 -9 66 19 19 36 20 52 4z m77 -23 c1 -17 4 -37 8 -45 5 -8 0 -5 -9 8 -9 12
-20 22 -25 22 -4 0 -10 -10 -12 -22 -2 -13 -5 -1 -6 25 -1 45 1 48 22 45 17
-2 22 -10 22 -33z m53 24 c-10 -5 -18 -14 -18 -19 0 -6 8 -10 18 -10 16 -1 16
-1 0 -11 -24 -14 -22 -27 5 -32 19 -4 18 -4 -5 -6 -27 -1 -28 1 -28 44 0 40 2
45 23 45 20 -1 20 -2 5 -11z m83 -5 c10 -13 10 -17 -2 -24 -11 -7 -11 -12 -1
-22 6 -6 12 -17 12 -22 0 -6 -7 0 -17 13 -15 23 -17 23 -30 6 -12 -17 -13 -16
-13 16 0 51 23 66 51 33z m-319 -32 c1 -22 7 -32 20 -35 13 -3 11 -4 -4 -3
-19 1 -24 8 -26 41 -2 22 -1 37 3 33 3 -3 7 -20 7 -36z m2248 3 c0 -8 -4 -15
-10 -15 -5 0 -10 7 -10 15 0 8 5 15 10 15 6 0 10 -7 10 -15z m54 -6 c-3 -5
-10 -7 -15 -3 -5 3 -7 10 -3 15 3 5 10 7 15 3 5 -3 7 -10 3 -15z m56 0 c0 -5
-4 -9 -10 -9 -5 0 -10 7 -10 16 0 8 5 12 10 9 6 -3 10 -10 10 -16z m-2510
-289 c0 -4 -10 -6 -22 -3 -23 5 -23 5 1 -15 30 -24 22 -52 -14 -52 -28 0 -35
20 -7 20 16 1 16 1 0 14 -25 18 -22 44 5 48 25 5 37 1 37 -12z m140 -10 c0 -6
5 -10 10 -10 6 0 10 7 10 15 0 8 5 15 10 15 6 0 10 -18 10 -40 0 -46 -18 -53
-43 -17 l-16 22 0 -22 c-1 -44 -21 -22 -21 22 0 43 1 45 20 35 11 -6 20 -15
20 -20z m232 20 c6 0 8 -11 6 -24 -9 -45 9 -52 29 -11 10 21 22 38 27 39 5 0
17 -17 26 -39 l17 -41 -55 -1 c-42 -1 -59 3 -69 15 -11 16 -12 16 -13 0 0 -37
-20 -16 -20 20 0 43 7 55 28 47 7 -3 18 -5 24 -5z m-342 -30 c0 -20 5 -30 15
-30 10 0 15 10 15 30 0 17 5 30 11 30 6 0 9 -16 7 -37 -3 -35 -6 -38 -33 -38
-27 0 -30 3 -33 38 -2 21 1 37 7 37 6 0 11 -13 11 -30z m260 17 c-31 -16 -33
-41 -2 -45 29 -4 29 -22 -1 -22 -27 0 -47 17 -47 40 0 24 20 40 50 40 l25 0
-25 -13z m-445 -17 c14 13 25 19 25 13 0 -6 -12 -18 -26 -28 -26 -17 -27 -16
-53 11 l-26 28 28 -24 27 -23 25 23z m385 -20 c0 -5 -9 -10 -20 -10 -11 0 -20
5 -20 10 0 6 9 10 20 10 11 0 20 -4 20 -10z m-770 -147 c-8 -3 -24 -13 -35
-22 -20 -16 -20 -16 -1 7 11 12 26 22 35 21 14 0 14 -1 1 -6z m91 -20 c13 -16
12 -17 -3 -4 -17 13 -22 21 -14 21 2 0 10 -8 17 -17z m614 -3 c3 -5 24 -10 46
-10 38 0 39 -1 39 -34 0 -59 -7 -66 -65 -66 -79 0 -85 5 -85 59 0 26 3 51 7
54 10 11 51 8 58 -3z m-175 -55 c0 -6 -11 -22 -25 -35 -30 -28 -34 -16 -5 15
l20 22 -20 18 c-11 10 -20 23 -20 28 0 6 11 0 25 -13 14 -13 25 -29 25 -35z
m937 -27 c-2 -18 -4 -6 -4 27 0 33 2 48 4 33 2 -15 2 -42 0 -60z m-317 42
c-11 -8 -9 -43 4 -59 9 -11 8 -13 -4 -9 -15 5 -30 62 -22 85 3 9 7 9 17 0 7
-7 9 -14 5 -17z m446 15 c10 -10 11 -15 4 -15 -8 0 -11 -12 -8 -35 4 -38 -9
-48 -17 -12 -9 44 -9 77 1 77 3 0 12 -7 20 -15z m-683 -15 c-13 -5 -23 -18
-23 -28 0 -10 10 -24 23 -30 14 -7 17 -11 7 -11 -22 -1 -40 19 -40 44 0 27 8
35 34 34 20 0 20 -1 -1 -9z m65 -2 c-9 -7 -19 -26 -21 -43 -3 -24 -4 -21 -6
13 -1 37 2 42 21 42 19 0 20 -1 6 -12z m70 -29 c3 -34 1 -36 -25 -35 -39 1
-43 31 -6 44 l28 10 -25 11 -25 11 25 -3 c21 -2 25 -8 28 -38z m182 37 c0 -2
3 -11 6 -20 5 -12 0 -16 -21 -16 -17 0 -25 -5 -22 -12 2 -7 12 -12 21 -12 9 1
16 -2 16 -7 0 -13 -34 -11 -48 3 -25 25 -6 68 30 68 10 0 18 -2 18 -4z m126
-22 c3 -13 2 -32 -2 -41 -6 -14 -9 -9 -12 20 -4 47 -25 45 -31 -4 l-4 -34 -6
34 c-8 45 -31 54 -31 12 0 -16 -4 -33 -10 -36 -6 -4 -10 10 -10 34 l0 40 50
-1 c44 0 51 -3 56 -24z m79 -14 c0 -29 -4 -36 -22 -38 -13 -2 -23 -10 -23 -18
0 -8 -4 -14 -10 -14 -5 0 -10 25 -10 56 l0 55 33 -3 c29 -3 32 -6 32 -38z
m113 -1 c3 -34 1 -36 -25 -35 -39 1 -43 31 -6 44 l28 10 -25 11 -25 11 25 -3
c21 -2 25 -8 28 -38z m122 37 c0 -2 3 -11 6 -20 5 -12 0 -16 -21 -16 -17 0
-25 -5 -22 -12 2 -7 12 -12 21 -12 9 1 16 -2 16 -7 0 -13 -34 -11 -48 3 -25
25 -6 68 30 68 10 0 18 -2 18 -4z m53 -3 c-29 -5 -30 -20 -2 -28 26 -9 21 -39
-9 -43 -12 -2 -22 1 -22 7 0 6 7 8 15 5 20 -8 19 13 -2 24 -23 13 -9 42 19 41
l23 -2 -22 -4z m-620 -30 c-7 -2 -19 -2 -25 0 -7 3 -2 5 12 5 14 0 19 -2 13
-5z m-1002 -30 c-12 -20 -14 -14 -5 12 4 9 9 14 11 11 3 -2 0 -13 -6 -23z
m-131 -31 c-8 -2 -28 -19 -45 -36 -16 -18 -23 -23 -15 -12 32 46 53 65 63 59
7 -4 6 -8 -3 -11z m78 -9 c-10 -2 -28 -2 -40 0 -13 2 -5 4 17 4 22 1 32 -1 23
-4z m687 -112 c39 -9 39 -9 -18 -10 -60 -1 -74 -11 -64 -48 4 -16 6 -15 12 5
7 19 14 22 66 22 62 0 65 -3 53 -48 -6 -21 -11 -23 -73 -20 l-66 3 -3 39 c-6
68 5 75 93 57z m-248 -43 l23 -21 26 24 c23 21 25 21 14 3 -26 -42 -45 -45
-76 -13 -32 33 -22 40 13 7z m400 -20 c-3 -8 -6 -5 -6 6 -1 11 2 17 5 13 3 -3
4 -12 1 -19z m333 -28 c0 -5 -5 -10 -11 -10 -5 0 -7 5 -4 10 3 6 8 10 11 10 2
0 4 -4 4 -10z m-378 -157 c38 -5 48 -20 48 -73 0 -28 -34 -55 -53 -43 -7 4
-32 10 -57 13 l-45 5 -3 44 c-5 64 2 75 41 67 17 -4 48 -10 69 -13z m-779 0
l-43 -4 0 -44 c0 -43 0 -44 38 -48 l37 -4 -42 -1 -43 -2 0 48 c0 27 3 52 7 55
3 4 25 6 47 5 l41 -1 -42 -4z m545 -25 c15 -25 15 -28 -3 -47 -10 -12 -23 -21
-28 -21 -6 0 0 11 13 25 l23 25 -24 26 c-13 15 -18 25 -11 23 8 -3 21 -17 30
-31z m-495 -69 c-4 -4 -6 13 -3 39 l5 47 3 -39 c2 -21 0 -42 -5 -47z m-145 0
c-3 -20 -5 -19 -9 9 -3 20 -2 29 4 23 5 -5 7 -19 5 -32z m-101 -11 c-3 -7 -5
-2 -5 12 0 14 2 19 5 13 2 -7 2 -19 0 -25z m99 -55 c-11 -11 -17 4 -9 23 7 18
8 18 11 1 2 -10 1 -21 -2 -24z m93 -89 c-6 -8 -23 -13 -38 -13 -25 1 -25 2 4
8 27 5 30 11 35 51 l4 45 4 -38 c2 -21 -2 -45 -9 -53z m-163 -7 c21 -4 21 -4
-3 -3 -24 1 -28 6 -30 34 -3 30 -3 31 3 3 4 -22 12 -31 30 -34z m707 -59 c-14
-15 -29 -26 -31 -23 -3 3 4 16 16 28 l22 24 -20 18 c-11 10 -20 23 -20 28 0 6
14 -2 30 -18 l30 -29 -27 -28z m547 68 c0 -8 10 -16 23 -18 17 -2 23 -11 25
-35 3 -27 -1 -33 -22 -39 -14 -3 -29 -3 -34 0 -12 7 -15 106 -2 106 5 0 10 -6
10 -14z m77 -68 c-2 -18 -4 -6 -4 27 0 33 2 48 4 33 2 -15 2 -42 0 -60z
m-1252 62 c3 -6 -1 -7 -9 -4 -18 7 -21 14 -7 14 6 0 13 -4 16 -10z m831 -12
c4 4 4 1 0 -6 -4 -7 -12 -9 -18 -6 -7 5 -8 2 -3 -6 6 -10 12 -9 24 6 17 20 67
27 69 9 1 -5 4 -24 8 -41 9 -46 -14 -61 -69 -43 -23 7 -49 12 -59 11 -13 -2
-16 2 -13 19 2 12 7 24 11 28 4 3 4 -2 1 -11 -3 -10 -2 -20 3 -23 6 -4 10 8
10 25 0 18 -4 29 -10 25 -5 -3 -10 1 -10 9 0 12 5 14 24 6 13 -5 27 -6 32 -2z
m232 -26 c4 -28 -14 -52 -40 -52 -10 0 -17 -4 -13 -9 3 -5 1 -12 -5 -16 -6 -4
-10 15 -10 50 l0 56 33 -3 c25 -2 33 -8 35 -26z m34 -4 c2 -18 8 -33 13 -33 6
0 11 15 13 33 5 46 22 40 22 -8 0 -35 -3 -40 -23 -40 -31 0 -47 18 -47 52 0
39 18 35 22 -4z m198 -9 c0 -24 -4 -38 -10 -34 -5 3 -10 22 -10 41 0 19 5 34
10 34 6 0 10 -18 10 -41z m52 30 c-28 -11 -28 -55 1 -53 9 1 17 -2 17 -7 0
-19 -41 -8 -49 14 -11 29 4 57 32 56 l22 0 -23 -10z m-497 -208 c40 -9 39 -9
-17 -10 l-58 -1 1 -32 c1 -23 3 -26 6 -11 4 20 10 22 67 22 40 -1 63 -5 63
-12 0 -7 2 -18 4 -26 7 -24 -42 -41 -98 -34 l-51 6 -4 49 c-1 27 -1 52 1 54 6
6 41 4 86 -5z m-232 -61 c3 0 15 10 27 22 11 12 22 19 25 17 3 -3 -8 -18 -23
-32 l-28 -27 -30 32 c-23 26 -24 28 -3 10 14 -12 28 -22 32 -22z m450 5 c-3
-9 -8 -14 -10 -11 -3 3 -2 9 2 15 9 16 15 13 8 -4z m-1140 -35 c3 -11 1 -18
-4 -14 -5 3 -9 12 -9 20 0 20 7 17 13 -6z m137 -14 c0 -2 -7 -7 -16 -10 -8 -3
-12 -2 -9 4 6 10 25 14 25 6z m-108 -41 c-2 -19 -6 -35 -8 -35 -2 0 -4 16 -4
35 0 19 4 35 8 35 4 0 6 -16 4 -35z m113 -35 c-10 -11 -23 -20 -29 -20 -6 0
-3 5 7 11 9 6 15 14 12 20 -4 5 2 9 11 9 16 0 16 -1 -1 -20z m-72 -28 c-21 -2
-33 -9 -33 -18 0 -8 -7 -14 -15 -14 -7 0 -19 -8 -24 -17 -6 -10 -11 -13 -11
-6 0 6 9 18 20 26 11 8 18 21 15 28 -4 12 3 14 37 10 40 -5 41 -6 11 -9z m-5
-57 c-3 -3 -9 2 -12 12 -6 14 -5 15 5 6 7 -7 10 -15 7 -18z m722 0 l23 -25
-23 -25 c-13 -14 -28 -25 -33 -25 -6 0 0 11 13 25 l23 25 -23 25 c-13 14 -19
25 -13 25 5 0 20 -11 33 -25z m286 -19 c-3 -12 -6 -25 -6 -31 0 -5 -5 -3 -11
5 -8 11 -12 12 -16 2 -2 -6 -9 -9 -15 -6 -6 4 -1 13 13 21 14 8 16 12 6 9 -10
-3 -25 -6 -34 -6 -9 0 -13 -6 -9 -15 3 -8 1 -15 -4 -15 -14 0 -22 18 -11 25 6
3 8 12 5 19 -4 10 7 13 41 13 42 0 46 -2 41 -21z m132 -29 c3 -37 2 -38 -25
-35 -35 4 -37 28 -3 45 l24 12 -24 10 -25 11 25 -3 c21 -2 25 -8 28 -40z m90
15 c4 -28 -14 -52 -40 -52 -10 0 -17 -4 -13 -9 3 -5 1 -12 -5 -16 -6 -4 -10
15 -10 50 l0 56 33 -3 c25 -2 33 -8 35 -26z m80 11 c14 -26 -3 -63 -28 -63
-12 0 -20 -7 -20 -17 0 -15 -2 -16 -10 -3 -11 17 -13 61 -4 84 8 21 51 20 62
-1z m-1333 -3 c9 7 15 8 15 2 0 -13 -26 -23 -45 -16 -8 4 -15 11 -15 16 0 6 6
5 15 -2 12 -10 18 -10 30 0z m995 -55 c0 -14 -42 -13 -47 2 -2 6 8 11 22 11
14 0 25 -6 25 -13z m35 6 c3 -5 1 -12 -4 -15 -5 -3 -11 1 -15 9 -6 16 9 21 19
6z m-8 -170 c17 -22 16 -66 -2 -81 -11 -9 -34 -10 -80 -5 l-65 7 0 55 0 55 67
-8 c44 -4 72 -13 80 -23z m-277 -56 c-13 -14 -28 -25 -33 -25 -6 0 -1 10 11
23 26 28 27 34 5 61 -10 12 -4 9 12 -6 l29 -27 -24 -26z m661 68 c4 -48 3 -93
-3 -93 -10 0 -22 56 -19 88 1 13 21 17 22 5z m-241 -52 c0 -35 -2 -38 -27 -37
-38 1 -44 33 -9 42 32 8 34 21 4 27 -20 4 -19 4 5 6 25 1 27 -2 27 -38z m48
32 c-18 -4 -25 -23 -10 -23 4 0 13 -4 21 -9 12 -8 12 -12 2 -25 -15 -18 -41
-22 -41 -6 0 5 7 7 15 4 20 -8 19 13 -2 24 -20 12 -10 42 14 41 17 -1 17 -2 1
-6z m63 0 l-25 -5 22 -17 c15 -11 21 -23 16 -34 -6 -18 -44 -24 -44 -7 0 5 7
7 15 4 20 -8 19 13 -2 24 -23 13 -9 42 19 41 22 -2 22 -2 -1 -6z m88 -6 c14
-17 4 -27 -27 -27 -21 0 -23 -2 -12 -15 7 -9 20 -13 29 -10 13 5 14 4 3 -7
-25 -25 -63 20 -48 58 7 18 40 18 55 1z m99 6 c-22 -6 -23 -19 -3 -27 8 -3 15
-12 15 -21 0 -21 -28 -31 -43 -15 -9 10 -9 11 1 6 25 -14 35 6 12 24 -26 20
-19 41 13 39 17 -1 18 -2 5 -6z m-1456 -100 c-6 -65 -10 -70 -11 -15 0 28 3
52 7 52 4 0 6 -17 4 -37z m58 1 c0 -2 -9 0 -20 6 -11 6 -20 13 -20 16 0 2 9 0
20 -6 11 -6 20 -13 20 -16z m78 -47 c26 -20 29 -26 17 -31 -9 -3 -14 -2 -11 3
3 5 -12 21 -34 36 -41 28 -54 43 -22 26 9 -5 32 -21 50 -34z m-136 -60 c36
-18 23 -37 -27 -37 -28 0 -47 6 -56 17 -8 9 -9 14 -3 10 7 -4 17 0 24 8 15 18
30 19 62 2z m98 -7 c-14 -11 -29 -20 -35 -20 -5 0 4 9 20 20 38 25 48 25 15 0z
m870 0 l35 -8 -45 -2 c-25 -1 -52 -3 -60 -4 -8 0 -16 -12 -18 -26 -3 -23 -3
-24 10 -7 15 20 104 33 123 17 5 -4 10 -26 10 -47 0 -38 0 -38 -42 -40 -24 -1
-45 2 -48 8 -4 5 -19 9 -36 9 -29 0 -29 1 -29 54 0 57 8 67 45 59 11 -3 36 -8
55 -13z m-215 -40 c14 13 25 19 25 13 0 -5 -10 -19 -23 -31 l-23 -22 -30 32
c-28 32 -28 32 -1 9 l27 -24 25 23z m-825 -10 c0 -5 -2 -10 -4 -10 -3 0 -8 5
-11 10 -3 6 -1 10 4 10 6 0 11 -4 11 -10z m100 6 c0 -3 -4 -8 -10 -11 -5 -3
-10 -1 -10 4 0 6 5 11 10 11 6 0 10 -2 10 -4z m-9 -43 c13 -16 12 -17 -3 -4
-10 7 -18 15 -18 17 0 8 8 3 21 -13z m1005 -152 c5 -5 25 -11 44 -13 34 -3 35
-4 35 -48 l0 -45 -70 0 -70 0 -3 44 c-2 24 -1 50 2 57 6 16 47 19 62 5z m-196
-26 l23 -25 -23 -25 c-13 -14 -28 -25 -34 -25 -6 0 2 12 18 26 l28 25 -28 24
c-16 14 -24 25 -18 25 6 0 21 -11 34 -25z m590 -31 c0 -34 -4 -53 -10 -49 -5
3 -10 28 -10 56 0 27 5 49 10 49 6 0 10 -25 10 -56z m260 1 c0 -30 -4 -55 -10
-55 -5 0 -10 25 -10 55 0 30 5 55 10 55 6 0 10 -25 10 -55z m-383 -20 c1 -40
1 -40 -5 -6 -10 48 -32 53 -32 7 0 -20 -4 -36 -10 -36 -5 0 -10 16 -10 36 0
46 -23 41 -31 -7 -6 -34 -6 -34 -8 9 l-1 42 48 -2 47 -3 2 -40z m87 23 c8 -13
8 -23 0 -35 -28 -45 -89 -9 -64 38 13 24 48 22 64 -3z m114 0 c3 -14 -3 -18
-23 -18 -17 0 -25 -5 -22 -12 2 -7 13 -13 25 -12 12 0 19 -3 16 -8 -10 -15
-43 -8 -54 12 -15 28 4 62 33 58 12 -2 23 -11 25 -20z m55 15 c-17 -3 -23 -11
-23 -29 0 -16 8 -28 23 -34 21 -8 21 -9 2 -9 -12 -1 -26 4 -33 11 -26 26 -6
69 33 67 18 -2 18 -2 -2 -6z m41 -36 c9 -37 29 -29 37 14 6 33 6 33 8 -9 1
-42 0 -43 -26 -40 -25 3 -28 7 -30 43 -2 42 1 39 11 -8z m156 39 c0 -2 3 -11
6 -20 5 -12 0 -16 -21 -16 -17 0 -25 -5 -22 -12 2 -7 12 -12 21 -12 9 1 16 -2
16 -7 0 -5 -9 -9 -20 -9 -28 0 -48 44 -30 65 11 13 50 22 50 11z m50 -8 l-25
-10 23 -11 c13 -6 21 -18 20 -26 -4 -18 -48 -29 -48 -12 0 6 7 8 15 5 20 -8
19 13 -2 24 -22 13 -9 42 19 41 23 0 23 0 -2 -11z m-1654 -161 l1 -37 -4 35
-4 35 -105 0 -104 0 0 -79 c0 -67 3 -80 18 -84 10 -3 6 -5 -10 -6 l-28 -1 0
90 0 91 118 -3 117 -3 1 -38z m900 -44 l49 -8 -60 -5 c-55 -5 -60 -7 -63 -30
-2 -23 -1 -24 11 -7 11 12 29 17 71 17 58 0 62 -3 50 -47 -6 -21 -12 -23 -75
-23 l-69 0 0 55 c0 62 -1 61 86 48z m-876 -80 c0 -12 -4 -23 -9 -23 -5 0 -7 9
-4 20 3 12 -2 30 -13 43 l-19 22 23 -19 c12 -11 22 -30 22 -43z m675 37 c14
13 27 21 30 18 3 -2 -9 -17 -25 -33 l-30 -29 -25 24 c-14 13 -25 28 -25 33 0
6 11 0 25 -13 l25 -23 25 23z m-793 -31 c-3 -21 -7 -27 -13 -18 -4 7 -3 21 2
31 14 25 16 23 11 -13z m48 -76 c0 -7 -39 17 -46 28 -3 6 5 3 20 -6 14 -10 26
-19 26 -22z m750 -135 c0 -5 -11 -21 -25 -36 -14 -15 -25 -23 -25 -18 0 6 9
19 20 31 l20 22 -20 18 c-11 10 -20 23 -20 28 0 6 11 0 25 -13 14 -13 25 -27
25 -32z m687 -30 c-2 -18 -4 -6 -4 27 0 33 2 48 4 33 2 -15 2 -42 0 -60z
m-319 34 c-8 -9 -7 -20 1 -38 9 -20 9 -25 -1 -22 -13 5 -27 63 -20 85 3 9 7 9
17 0 9 -9 10 -16 3 -25z m441 10 c-12 -5 -11 -59 1 -65 6 -3 5 -4 -2 -3 -13 3
-27 61 -20 83 3 9 7 9 17 0 7 -7 9 -13 4 -15z m-359 -12 c9 -18 8 -20 -15 -20
-31 0 -34 -27 -2 -33 15 -4 12 -5 -8 -4 -23 2 -31 7 -33 25 -7 45 38 70 58 32z
m120 0 c12 -19 13 -60 1 -60 -6 0 -11 15 -13 33 -4 41 -21 38 -29 -5 l-6 -33
-2 32 c0 17 -6 35 -12 38 -14 9 -17 5 -23 -29 -8 -44 -16 -44 -16 1 l0 40 45
-1 c29 -1 49 -7 55 -16z m85 -20 c0 -29 -4 -36 -22 -38 -13 -2 -23 -10 -23
-18 0 -8 -4 -14 -10 -14 -5 0 -10 24 -10 53 l0 53 33 -1 c30 0 32 -2 32 -35z
m103 28 c7 -7 12 -25 12 -40 0 -24 -4 -28 -30 -28 -23 0 -30 5 -30 19 0 11 9
23 20 26 11 3 20 11 20 17 0 5 -7 8 -15 4 -8 -3 -15 -1 -15 4 0 14 24 12 38
-2z m132 -8 c9 -18 8 -20 -15 -20 -31 0 -34 -27 -2 -33 19 -4 18 -4 -5 -6 -22
-1 -29 4 -34 24 -11 46 35 75 56 35z m47 9 c-16 -10 -16 -11 4 -28 26 -21 18
-42 -14 -40 -17 1 -18 2 -4 6 21 6 22 12 0 28 -20 15 -11 45 14 45 17 -1 17
-1 0 -11z m-677 -45 c0 -35 0 -35 -42 -32 -40 3 -43 5 -46 35 -3 31 -3 31 42
31 46 0 46 0 46 -34z m-982 -151 c-4 -22 -22 -20 -26 1 -2 10 3 16 13 16 10 0
15 -7 13 -17z m970 -60 l-3 -68 -62 -2 -63 -1 0 69 0 69 65 0 66 0 -3 -67z
m282 -9 l0 -55 -32 3 c-30 3 -33 6 -33 38 0 27 5 36 20 38 11 3 24 10 28 18
14 24 17 16 17 -42z m-173 -36 c-2 -13 -4 -3 -4 22 0 25 2 35 4 23 2 -13 2
-33 0 -45z m85 39 c3 -13 1 -32 -3 -43 -6 -14 -8 -9 -8 19 -1 46 -31 54 -31 8
0 -17 -4 -33 -10 -36 -6 -4 -10 9 -10 32 0 35 2 39 29 41 23 2 30 -2 33 -21z
m158 19 c0 -2 3 -11 6 -20 5 -12 0 -16 -21 -16 -17 0 -25 -5 -22 -12 2 -7 12
-12 21 -12 9 1 16 -2 16 -7 0 -5 -9 -9 -20 -9 -28 0 -48 44 -30 65 11 13 50
22 50 11z m36 -7 c4 -8 9 -8 17 0 18 18 28 12 15 -9 -10 -16 -10 -24 0 -40 7
-11 8 -20 3 -20 -5 0 -12 8 -16 18 -6 16 -7 16 -16 0 -6 -10 -14 -18 -20 -18
-5 0 -4 9 3 20 10 16 10 24 0 40 -7 11 -8 20 -3 20 6 0 13 -5 17 -11z m90 -85
c-3 -8 -13 -14 -23 -14 -17 1 -17 1 0 11 12 7 18 24 19 57 l1 47 4 -44 c3 -24
2 -50 -1 -57z m62 89 c-22 -6 -23 -12 -1 -28 22 -16 10 -45 -19 -44 l-23 0 24
10 23 9 -23 18 c-26 21 -18 43 14 41 17 -1 18 -2 5 -6z m-1706 -108 c3 -14 1
-25 -3 -25 -5 0 -9 11 -9 25 0 14 2 25 4 25 2 0 6 -11 8 -25z m806 -120 c22
-23 22 -25 6 -49 -9 -15 -21 -26 -27 -26 -6 0 -2 10 11 22 l22 22 -27 28 c-15
15 -23 28 -17 28 5 0 19 -11 32 -25z m580 -76 c-18 -12 -21 -11 -43 4 -27 21
-13 67 20 67 16 0 26 6 27 18 1 9 3 -5 5 -32 3 -33 0 -52 -9 -57z m102 52 c0
-42 -3 -49 -22 -54 -29 -8 -50 11 -46 42 2 18 10 27 26 29 12 2 22 10 22 18 0
8 5 14 10 14 6 0 10 -22 10 -49z m30 -3 c0 -28 -3 -48 -7 -45 -3 4 -6 23 -5
42 1 50 1 55 7 55 3 0 5 -23 5 -52z m-436 13 c12 -10 14 -17 5 -27 -9 -11 -8
-18 0 -28 16 -19 -5 -32 -24 -16 -12 10 -15 10 -15 0 0 -6 -8 -10 -17 -8 -10
2 -18 10 -18 18 0 8 -8 14 -18 14 -13 -2 -9 6 15 31 35 34 47 37 72 16z m194
-28 c-1 -37 -1 -37 -5 -5 -6 42 -33 44 -33 2 0 -16 -4 -30 -10 -30 -5 0 -10
14 -10 31 0 39 -22 34 -31 -7 -6 -27 -7 -27 -8 9 l-1 37 50 0 50 0 -2 -37z
m42 2 c0 -19 -4 -35 -10 -35 -5 0 -10 16 -10 35 0 19 5 35 10 35 6 0 10 -16
10 -35z m278 13 c3 -14 -3 -18 -23 -18 -17 0 -25 -5 -22 -12 2 -7 14 -12 26
-11 13 2 20 -1 16 -7 -20 -32 -72 19 -54 52 13 24 52 20 57 -4z m46 0 c8 25
26 30 26 7 0 -8 5 -15 10 -15 6 0 10 7 10 15 0 8 5 15 10 15 9 0 5 -42 -7 -62
-8 -15 -21 -8 -28 15 l-8 22 -4 -22 c-6 -30 -21 -29 -33 3 -14 37 -12 53 4 25
l14 -24 6 21z m130 6 c12 -31 6 -52 -16 -57 -29 -8 -52 11 -37 29 6 8 18 14
25 14 23 0 16 18 -8 23 -21 4 -20 4 3 6 16 0 29 -5 33 -15z m49 9 c-7 -2 -13
-18 -13 -34 0 -16 -4 -29 -10 -29 -5 0 -10 16 -10 35 0 30 3 35 23 34 12 0 16
-3 10 -6z m77 -13 c0 -15 -7 -20 -26 -20 -23 0 -25 -2 -14 -15 7 -9 20 -13 29
-10 13 5 14 4 3 -7 -25 -25 -63 20 -48 58 3 8 17 14 31 14 18 0 25 -5 25 -20z
m48 13 c-22 -6 -23 -19 -3 -27 8 -3 15 -12 15 -21 0 -21 -28 -31 -43 -15 -9
10 -9 11 1 6 25 -14 35 6 12 24 -26 20 -19 41 13 39 17 -1 18 -2 5 -6z m2452
-63 c0 -22 -4 -40 -10 -40 -5 0 -10 11 -10 24 0 14 -5 28 -10 31 -13 8 -3 25
16 25 10 0 14 -12 14 -40z m547 34 c-3 -3 -12 -4 -19 -1 -8 3 -5 6 6 6 11 1
17 -2 13 -5z m1821 -1 c-21 -5 -23 -14 -6 -31 9 -9 9 -12 0 -12 -18 0 -14 -18
6 -23 10 -3 6 -5 -10 -6 -25 -1 -28 2 -28 34 0 51 -29 48 -32 -2 l-1 -38 -4
37 c-3 24 -10 38 -21 41 -9 3 12 5 48 5 36 0 57 -2 48 -5z m80 -24 c-2 -19 2
-34 10 -36 8 -3 12 7 12 31 0 40 15 48 26 14 4 -13 2 -24 -5 -26 -6 -2 -11
-10 -11 -18 0 -19 -39 -18 -46 1 -4 8 -10 15 -15 15 -5 0 -9 -7 -9 -15 0 -8
-4 -15 -10 -15 -5 0 -10 18 -10 40 0 38 2 40 30 40 28 0 30 -3 28 -31z m111
-11 c-1 -24 -4 -33 -6 -20 -5 27 -20 29 -28 2 -7 -23 -25 -27 -25 -5 0 8 5 15
10 15 6 0 16 11 22 25 17 38 28 30 27 -17z m28 -20 c-2 -13 -4 -3 -4 22 0 25
2 35 4 23 2 -13 2 -33 0 -45z m53 42 c14 -26 28 -25 33 3 3 13 5 8 6 -15 1
-46 17 -49 29 -6 11 44 28 46 43 4 17 -46 29 -46 31 2 l1 37 4 -37 c3 -24 10
-38 21 -41 9 -3 1 -5 -20 -6 -21 -1 -38 4 -41 12 -3 10 -9 10 -26 0 -30 -19
-54 -16 -69 7 -16 26 -30 25 -35 -2 -2 -13 -5 -4 -6 20 -1 45 11 55 29 22z
m63 -147 c-83 -2 -223 -2 -310 0 -87 1 -18 3 152 3 171 0 242 -2 158 -3z
m-7017 -52 c-10 -15 -46 -14 -46 2 0 7 5 18 12 25 10 10 15 9 26 -2 8 -8 11
-19 8 -25z m724 14 l23 -25 -23 -25 c-13 -14 -28 -25 -34 -25 -6 0 0 7 12 16
28 19 28 32 0 61 -12 13 -17 23 -11 23 5 0 20 -11 33 -25z m-650 11 c0 -2 3
-11 6 -20 5 -12 0 -16 -20 -16 -19 0 -26 5 -26 20 0 13 7 20 20 20 11 0 20 -2
20 -4z m925 -71 c0 -49 -1 -50 -32 -53 -19 -2 -33 1 -33 7 0 6 -8 12 -17 12
-16 1 -16 2 -1 6 13 3 15 10 8 34 -5 18 -5 29 1 29 6 0 8 4 5 8 -2 4 12 8 32
7 l37 0 0 -50z m159 33 c14 -23 -3 -52 -32 -56 -11 -2 -23 -11 -25 -20 -3 -9
-5 8 -6 39 -1 54 0 56 25 55 15 -1 32 -9 38 -18z m70 6 c3 -9 6 -27 6 -40 0
-20 -5 -24 -30 -24 -23 0 -30 5 -30 19 0 11 9 23 20 26 11 3 20 11 20 17 0 5
-7 8 -15 4 -8 -3 -15 -1 -15 4 0 16 37 11 44 -6z m84 -36 c-3 -51 -4 -53 -33
-55 -20 -1 -23 0 -7 4 27 6 29 23 2 23 -13 0 -22 9 -26 25 -8 31 11 55 43 55
23 0 24 -3 21 -52z m80 29 c3 -12 -3 -17 -22 -17 -32 0 -34 -17 -3 -30 22 -9
22 -9 1 -9 -26 -1 -42 17 -38 43 6 37 56 47 62 13z m62 13 c0 -5 -7 -7 -15 -4
-20 8 -19 -13 2 -24 23 -13 9 -42 -19 -41 -17 1 -18 2 -5 6 22 6 22 19 0 31
-21 12 -10 42 17 42 11 0 20 -4 20 -10z m-1516 -29 c8 -13 -20 -45 -32 -37
-20 12 -14 46 7 46 11 0 22 -4 25 -9z m200 0 c9 -14 -4 -41 -19 -41 -12 0 -25
21 -25 41 0 12 37 12 44 0z m-60 -60 c29 -30 36 -44 31 -60 -8 -28 -40 -44
-68 -35 -12 4 -38 6 -58 5 -29 -1 -38 3 -46 22 -9 19 -8 29 5 49 49 72 80 76
136 19z m842 -124 c4 -4 22 -7 39 -7 49 0 60 -20 37 -67 -11 -23 -24 -36 -33
-34 -8 2 -30 5 -49 7 -55 5 -60 10 -60 57 0 24 3 47 7 50 8 9 49 4 59 -6z
m-196 -22 l23 -25 -23 -25 c-13 -14 -28 -25 -33 -25 -6 0 0 11 13 25 l23 25
-23 25 c-13 14 -19 25 -13 25 5 0 20 -11 33 -25z m609 -13 c-13 -5 -11 -46 4
-61 10 -11 9 -13 -3 -9 -15 5 -30 62 -22 85 3 9 7 9 17 0 7 -7 9 -13 4 -15z
m-211 -4 c-9 -7 -19 -26 -21 -43 -3 -24 -4 -21 -6 13 -1 37 2 42 21 42 19 0
20 -1 6 -12z m82 -3 c18 -22 -2 -65 -30 -65 -28 0 -48 43 -30 65 7 8 20 15 30
15 10 0 23 -7 30 -15z m38 -20 c0 -14 2 -28 5 -31 12 -12 27 8 27 37 0 16 5
29 10 29 6 0 9 -16 8 -37 -3 -29 -8 -37 -27 -40 -14 -2 -28 2 -33 9 -11 17
-10 71 1 64 5 -3 9 -17 9 -31z m170 13 c3 -13 -3 -18 -22 -18 -19 0 -24 -4
-19 -16 4 -10 13 -14 26 -10 15 4 17 2 8 -7 -24 -24 -61 22 -47 59 8 21 50 14
54 -8z m50 15 c-22 -6 -23 -12 -1 -28 21 -16 10 -45 -17 -45 -11 0 -20 5 -20
11 0 5 5 7 10 4 6 -3 15 -3 21 1 8 5 4 13 -11 24 -26 20 -19 41 13 39 17 -1
18 -2 5 -6z m6992 -163 c0 -5 -5 -10 -11 -10 -5 0 -7 5 -4 10 3 6 8 10 11 10
2 0 4 -4 4 -10z m-3470 -4 c0 -11 -19 -15 -25 -6 -3 5 1 10 9 10 9 0 16 -2 16
-4z m838 -59 c-11 -31 -25 -57 -29 -57 -5 0 2 25 16 56 14 31 25 59 25 62 0 3
2 3 5 1 2 -3 -5 -31 -17 -62z m170 -1 c-13 -31 -26 -56 -30 -56 -4 0 2 23 13
52 24 60 29 71 35 65 3 -3 -5 -30 -18 -61z m532 60 c0 -11 -52 -118 -55 -114
-7 6 39 118 48 118 4 0 7 -2 7 -4z m40 -10 c0 -8 10 -16 23 -18 17 -2 23 -11
25 -35 2 -19 -1 -33 -7 -33 -6 0 -11 11 -11 25 0 16 -6 25 -15 25 -9 0 -15 -9
-15 -25 0 -14 -4 -25 -10 -25 -5 0 -9 23 -9 50 1 28 6 50 10 50 5 0 9 -6 9
-14z m215 -41 c2 -47 -13 -63 -49 -49 -26 10 -18 74 10 74 8 0 17 7 21 15 9
25 16 10 18 -40z m335 51 c0 -11 -51 -118 -55 -114 -7 6 37 118 46 118 5 0 9
-2 9 -4z m80 -11 c16 -19 6 -45 -20 -52 -11 -3 -20 -12 -20 -19 0 -8 -4 -14
-10 -14 -15 0 -12 87 3 93 22 9 34 7 47 -8z m78 3 c5 -7 10 -32 9 -56 0 -41 0
-42 -15 -21 -15 21 -16 21 -29 4 -12 -17 -13 -14 -13 26 0 25 3 49 7 52 10 11
30 8 41 -5z m91 -2 c17 -20 10 -77 -11 -89 -24 -16 -48 8 -48 47 0 49 34 73
59 42z m81 -36 c0 -51 -15 -71 -41 -54 -9 5 -6 10 9 15 29 11 31 59 2 66 -24
6 -16 23 11 23 16 0 19 -7 19 -50z m95 40 c4 -6 -5 -10 -19 -10 -14 0 -26 -4
-26 -10 0 -5 9 -10 20 -10 11 0 20 -4 20 -10 0 -5 -9 -10 -20 -10 -11 0 -20
-7 -20 -15 0 -8 9 -15 20 -15 11 0 20 -4 20 -10 0 -5 -11 -10 -25 -10 -23 0
-25 3 -25 48 0 27 3 52 7 55 10 10 41 8 48 -3z m79 1 c3 -5 -5 -12 -19 -15
-18 -5 -25 -13 -25 -30 0 -24 24 -41 42 -30 6 4 9 1 6 -7 -12 -35 -68 -9 -68
32 0 20 33 59 49 59 6 0 12 -4 15 -9z m96 -1 c0 -5 -7 -10 -15 -10 -11 0 -15
-12 -15 -46 0 -30 -4 -43 -11 -38 -7 4 -9 21 -6 41 5 29 3 36 -13 40 -11 3
-17 9 -14 14 7 12 74 11 74 -1z m64 1 c3 -5 -4 -12 -17 -15 -22 -6 -22 -7 6
-22 34 -19 36 -51 3 -60 -25 -6 -46 1 -46 15 0 5 11 6 25 3 32 -6 32 7 -1 33
-25 20 -25 22 -10 38 19 19 32 21 40 8z m96 5 c0 -12 -52 -118 -56 -114 -7 7
37 118 47 118 5 0 9 -2 9 -4z m79 -10 c9 -10 9 -20 3 -33 -7 -12 -7 -25 0 -37
5 -9 8 -20 5 -23 -3 -2 -10 5 -17 16 -13 24 -30 28 -30 6 0 -8 -4 -15 -9 -15
-12 0 -9 83 4 92 16 12 31 9 44 -6z m681 10 c0 -12 -53 -116 -57 -112 -3 2 2
19 10 38 9 18 18 43 22 56 5 18 25 33 25 18z m652 -56 c-15 -33 -30 -60 -34
-60 -3 0 5 27 19 60 15 33 30 60 34 60 4 0 -5 -27 -19 -60z m108 7 c0 -51 -1
-53 -26 -52 -18 0 -30 7 -34 20 -9 24 5 55 24 55 8 0 16 7 20 15 10 28 16 15
16 -38z m180 48 c0 -3 -10 -10 -22 -15 -18 -7 -19 -9 -5 -9 21 -1 23 -19 2
-27 -8 -4 -16 -16 -16 -28 -1 -20 -2 -20 -6 -1 -3 11 -11 25 -19 31 -13 10
-13 12 1 18 8 3 15 12 15 21 0 9 9 15 25 15 14 0 25 -2 25 -5z m223 -35 c-2
-29 1 -42 12 -46 8 -4 12 -10 9 -15 -7 -12 -64 -11 -64 1 0 6 7 10 15 10 10 0
15 11 15 35 0 19 -4 35 -10 35 -5 0 -10 5 -10 10 0 6 8 10 18 10 15 0 18 -7
15 -40z m-5806 15 c0 -8 -4 -12 -9 -9 -4 3 -8 9 -8 15 0 5 4 9 8 9 5 0 9 -7 9
-15z m413 11 c0 -2 -11 -6 -25 -8 -14 -3 -25 -1 -25 3 0 5 11 9 25 9 14 0 25
-2 25 -4z m2275 -32 c-20 -15 -19 -31 2 -43 10 -5 15 -13 11 -16 -11 -11 -38
3 -44 22 -3 10 -9 25 -13 33 -12 23 9 38 36 26 20 -9 21 -13 8 -22z m1601 16
c8 0 14 -4 14 -10 0 -5 -7 -10 -15 -10 -8 0 -15 -7 -15 -15 0 -9 7 -18 15 -21
19 -8 19 -24 0 -24 -8 0 -19 9 -25 20 -6 11 -8 20 -4 20 3 0 1 7 -6 15 -10 12
-10 18 1 31 8 10 15 12 17 5 2 -6 10 -11 18 -11z m1618 -12 c-3 -5 -12 -8 -20
-8 -16 0 -16 -2 -8 -24 3 -9 12 -16 20 -16 8 0 14 -5 14 -11 0 -6 -10 -9 -22
-7 -16 2 -24 11 -26 28 -2 14 -7 29 -12 34 -5 5 -3 14 3 20 12 14 59 -2 51
-16z m-8948 -8 c36 0 64 -26 64 -60 0 -43 -20 -53 -95 -45 l-65 7 0 53 c0 57
15 71 52 53 9 -4 29 -8 44 -8z m2702 -9 c4 -28 -21 -53 -44 -44 -24 9 -15 20
12 15 22 -4 25 -2 22 19 -2 17 -9 24 -25 23 -12 0 -20 3 -17 8 12 19 49 3 52
-21z m82 18 c0 -5 -5 -7 -10 -4 -6 4 -17 1 -25 -5 -9 -8 -15 -8 -15 -2 0 11
16 20 38 21 6 1 12 -4 12 -10z m69 -5 c-11 -13 -10 -19 1 -37 13 -22 13 -22
-9 -3 -21 19 -21 19 -22 0 -1 -17 -2 -17 -6 -1 -3 10 5 25 19 37 28 24 35 25
17 4z m269 -4 c5 -13 3 -13 -11 -1 -14 11 -20 11 -32 1 -13 -11 -14 -10 -9 4
8 21 45 18 52 -4z m82 13 c0 -5 -11 -8 -24 -8 -13 0 -22 3 -19 8 2 4 13 7 24
7 10 0 19 -3 19 -7z m78 -5 c19 -19 14 -28 -13 -28 -31 0 -33 -17 -2 -22 13
-2 18 -6 11 -10 -21 -14 -48 17 -40 45 7 29 24 35 44 15z m182 -10 c0 -13 -4
-28 -8 -34 -10 -16 -52 -28 -52 -15 0 5 10 11 23 13 16 2 23 11 25 31 4 33 12
36 12 5z m70 18 c0 -2 -9 -6 -20 -9 -11 -3 -18 -1 -14 4 5 9 34 13 34 5z m84
-5 c4 -5 -3 -7 -14 -4 -23 6 -26 13 -6 13 8 0 17 -4 20 -9z m91 -1 c-4 -6 -11
-8 -16 -4 -5 3 -18 0 -27 -8 -15 -12 -16 -11 -3 5 14 18 57 25 46 7z m78 3 c3
-5 -6 -9 -20 -10 -19 -1 -22 1 -12 8 17 11 26 11 32 2z m81 -1 c2 -4 -4 -8
-15 -8 -10 0 -19 4 -19 8 0 4 6 8 14 8 8 0 17 -4 20 -8z m1085 -17 c12 -1 21
4 21 12 0 7 4 13 9 13 6 0 7 -17 4 -37 -7 -46 -11 -52 -23 -33 -7 11 -11 11
-24 1 -14 -11 -16 -11 -16 5 0 11 -3 30 -6 44 -4 19 -3 21 4 11 6 -8 20 -15
31 -16z m157 14 c4 -8 9 -8 17 0 18 18 28 12 16 -10 -8 -15 -8 -24 0 -32 19
-19 12 -28 -10 -15 -17 10 -23 10 -26 1 -3 -7 -9 -13 -15 -13 -6 0 -3 11 5 24
14 21 14 25 -1 40 -9 9 -11 16 -5 16 7 0 15 -5 19 -11z m126 -7 c9 -32 -10
-64 -34 -60 -32 4 -31 40 2 49 24 7 24 7 3 8 -31 1 -29 21 1 21 14 0 26 -7 28
-18z m97 1 c10 -17 10 -17 11 0 0 12 8 17 30 17 21 0 30 -5 31 -17 2 -30 -2
-48 -12 -52 -6 -1 -19 -12 -30 -24 l-19 -21 -1 40 c-1 21 -3 31 -6 22 -6 -26
-23 -22 -24 5 0 13 -2 16 -6 7 -14 -43 -16 -44 -23 -15 -6 24 -8 25 -9 8 -2
-37 -21 -26 -21 12 0 33 2 35 35 35 22 0 38 -6 44 -17z m156 -18 c0 -22 -6
-33 -22 -40 -13 -5 -23 -13 -23 -17 0 -5 -4 -8 -10 -8 -5 0 -10 23 -10 51 l0
50 33 -3 c28 -3 32 -6 32 -33z m425 14 c9 -16 8 -25 -6 -40 -9 -10 -23 -19
-30 -19 -19 0 -36 37 -29 60 9 27 51 26 65 -1z m80 11 c0 -5 -9 -10 -19 -10
-30 0 -31 -24 -2 -36 23 -10 24 -12 8 -19 -27 -11 -51 17 -43 49 5 19 13 26
31 26 14 0 25 -4 25 -10z m80 0 c0 -5 -8 -10 -17 -11 -14 0 -13 -3 5 -11 25
-12 25 -26 -1 -42 -12 -8 -20 -7 -29 2 -9 9 -7 12 11 12 l23 0 -22 18 c-13 11
-20 24 -16 30 9 15 46 16 46 2z m1020 -10 c8 -15 8 -21 -2 -24 -39 -13 -42
-14 -20 -15 26 -1 30 -21 4 -21 -29 0 -51 31 -41 58 11 28 45 29 59 2z m88
-17 c3 -28 -1 -33 -23 -39 -15 -4 -31 -2 -37 4 -16 16 -2 42 24 43 l23 2 -22
4 c-33 6 -28 25 5 21 22 -2 28 -8 30 -35z m77 27 c-3 -5 -12 -10 -20 -10 -26
0 -24 -29 3 -38 23 -8 24 -11 9 -17 -10 -4 -24 -2 -32 5 -15 13 -20 51 -8 63
10 11 55 8 48 -3z m249 -6 c9 -25 -4 -85 -21 -91 -8 -3 -19 -1 -26 6 -8 8 -5
11 11 11 18 0 22 6 22 35 0 24 -5 35 -14 35 -8 0 -18 5 -21 10 -3 6 5 10 18
10 14 0 28 -7 31 -16z m86 6 c0 -5 -7 -10 -16 -10 -12 0 -11 -5 7 -20 21 -17
22 -21 9 -30 -19 -13 -37 -13 -45 0 -3 6 4 10 16 10 l21 0 -22 18 c-13 11 -20
24 -16 30 9 15 46 16 46 2z m170 0 c0 -5 -7 -10 -16 -10 -13 0 -11 -4 6 -18
20 -16 20 -19 6 -31 -9 -8 -23 -10 -33 -6 -16 7 -15 9 7 15 l25 6 -22 8 c-33
11 -31 46 2 46 14 0 25 -4 25 -10z m53 -42 c4 1 12 2 17 2 6 0 11 12 11 28 1
24 2 23 8 -8 9 -44 7 -47 -26 -46 -20 1 -29 7 -33 26 -4 14 -4 32 -1 40 3 10
7 4 11 -15 3 -16 9 -29 13 -27z m125 15 c2 -19 -1 -33 -7 -33 -6 0 -11 11 -11
25 0 16 -6 25 -15 25 -9 0 -15 -9 -15 -25 0 -14 -4 -25 -10 -25 -5 0 -10 16
-10 36 0 34 1 35 33 32 28 -3 32 -7 35 -35z m162 27 c0 -5 -9 -10 -20 -10 -26
0 -26 -30 0 -37 22 -6 17 -23 -6 -23 -23 0 -40 46 -24 65 14 17 50 21 50 5z
m90 -3 c0 -8 -10 -13 -22 -13 -15 1 -24 -7 -29 -24 -6 -22 -7 -20 -8 13 -1 35
1 37 29 37 18 0 30 -5 30 -13z m84 -19 c7 -37 -3 -51 -35 -46 -33 4 -32 40 1
49 24 7 24 7 3 8 -31 1 -29 21 1 21 18 0 25 -7 30 -32z m254 9 c3 -12 -4 -20
-20 -25 l-23 -6 25 -7 c23 -6 23 -7 6 -14 -37 -16 -71 30 -45 61 16 20 53 14
57 -9z m167 -17 c0 -31 -3 -35 -27 -38 -16 -2 -29 1 -29 7 -5 30 -2 36 21 42
24 7 24 7 3 8 -13 1 -23 6 -23 12 0 6 12 9 28 7 24 -3 27 -7 27 -38z m58 -14
c4 4 7 18 7 31 0 13 5 23 10 23 6 0 10 -15 10 -34 0 -26 -5 -36 -21 -41 -31
-10 -44 10 -39 60 1 15 5 11 14 -13 6 -18 15 -30 19 -26z m680 47 c-7 -2 -21
-2 -30 0 -10 3 -4 5 12 5 17 0 24 -2 18 -5z m-9666 -25 c29 -27 29 -31 -2 -63
-32 -31 -46 -33 -17 -2 12 13 22 27 22 32 0 5 -10 19 -22 32 -27 29 -12 30 19
1z m553 -28 c0 -27 -4 -50 -10 -50 -5 0 -10 23 -10 50 0 28 5 50 10 50 6 0 10
-22 10 -50z m3040 46 c0 -2 -7 -6 -15 -10 -8 -3 -15 -1 -15 4 0 6 7 10 15 10
8 0 15 -2 15 -4z m-3119 -13 c6 -84 5 -92 -8 -81 -15 12 -18 88 -3 88 6 0 10
-3 11 -7z m7769 -3 c0 -5 -9 -10 -20 -10 -11 0 -20 5 -20 10 0 6 9 10 20 10
11 0 20 -4 20 -10z m-8886 -94 c11 -52 6 -81 -19 -121 -22 -36 -24 -38 -24
-15 0 39 -10 122 -16 128 -3 3 -5 -17 -6 -44 -1 -27 -4 -60 -8 -74 l-7 -25
-22 35 c-32 51 -29 105 9 165 l31 49 28 -34 c16 -19 31 -48 34 -64z m4051 64
c7 0 16 6 18 13 3 7 6 5 6 -5 1 -13 -7 -18 -24 -18 -14 0 -25 2 -25 4 0 2 -3
13 -6 23 -5 17 -5 17 6 1 6 -10 17 -18 25 -18z m363 25 c-11 -11 -58 -15 -58
-5 0 5 14 10 32 10 17 0 29 -2 26 -5z m82 -14 c0 -22 -21 -33 -41 -20 -11 7
-9 9 9 9 12 0 22 5 22 11 0 6 -9 8 -21 4 -15 -5 -19 -4 -15 4 12 19 46 13 46
-8z m260 8 c0 -6 -8 -8 -19 -4 -11 3 -22 1 -26 -5 -4 -6 5 -10 22 -11 18 -1
22 -3 10 -6 -10 -3 -25 -2 -34 1 -12 5 -13 9 -3 21 14 17 50 20 50 4z m5390 7
c0 -2 -9 -6 -20 -9 -11 -3 -18 -1 -14 4 5 9 34 13 34 5z m253 -3 c-7 -2 -21
-2 -30 0 -10 3 -4 5 12 5 17 0 24 -2 18 -5z m-9357 -63 c8 0 14 10 14 24 0 14
5 28 10 31 6 4 10 -8 10 -28 0 -36 -17 -51 -45 -41 -10 4 -14 18 -13 43 l1 36
4 -32 c3 -20 10 -33 19 -33z m111 8 c-2 -13 -4 -5 -4 17 -1 22 1 32 4 23 2
-10 2 -28 0 -40z m91 45 c-22 -6 -23 -19 -3 -27 8 -3 15 -12 15 -21 0 -20 -28
-31 -43 -16 -8 8 -5 11 13 11 l24 0 -22 21 c-26 23 -21 40 11 38 17 -1 18 -2
5 -6z m2202 -14 c0 -5 -4 -9 -10 -9 -5 0 -10 7 -10 16 0 8 5 12 10 9 6 -3 10
-10 10 -16z m37 -1 c2 -17 0 -19 -7 -8 -5 8 -6 18 -4 22 8 12 10 10 11 -14z
m1081 9 c15 9 19 8 19 -3 0 -20 -49 -14 -54 6 -4 13 -3 13 6 0 8 -12 14 -13
29 -3z m97 -7 c-19 -21 -45 -27 -45 -10 0 6 9 10 19 10 11 0 23 5 26 10 3 6 9
10 12 10 3 0 -2 -9 -12 -20z m5645 -5 c14 -19 14 -19 -2 -6 -10 7 -18 18 -18
24 0 6 1 8 3 6 1 -2 9 -13 17 -24z m-6322 -2 c-7 -9 -16 -10 -29 -2 -25 13
-24 14 10 14 22 0 27 -3 19 -12z m262 8 c0 -4 -11 -6 -25 -3 -14 2 -25 6 -25
8 0 2 11 4 25 4 14 0 25 -4 25 -9z m590 -3 c0 -5 -11 -8 -25 -8 -14 0 -25 3
-25 8 0 4 11 7 25 7 14 0 25 -3 25 -7z m3450 -3 c0 -8 -4 -15 -9 -15 -13 0
-22 16 -14 24 11 11 23 6 23 -9z m-3875 -5 c-3 -5 -12 -7 -20 -3 -21 7 -19 13
6 13 11 0 18 -4 14 -10z m497 -2 c-9 -9 -15 -9 -24 0 -9 9 -7 12 12 12 19 0
21 -3 12 -12z m1548 -138 l0 -100 -40 0 -40 0 0 100 0 100 40 0 40 0 0 -100z
m-2982 23 c-8 -10 -6 -19 8 -34 18 -21 18 -21 -5 -40 -18 -15 -27 -17 -37 -8
-12 10 -12 13 2 23 14 11 14 13 0 25 -22 19 -20 36 7 54 25 17 44 2 25 -20z
m2612 27 c0 -5 -5 -10 -11 -10 -5 0 -7 5 -4 10 3 6 8 10 11 10 2 0 4 -4 4 -10z
m-1830 -10 c0 -5 -7 -10 -15 -10 -21 0 -19 -20 3 -20 16 -1 16 -1 0 -14 -10
-7 -18 -21 -18 -30 0 -9 -4 -16 -10 -16 -5 0 -10 8 -10 18 0 10 -5 23 -12 30
-8 8 -8 12 -1 12 6 0 13 9 16 20 5 20 47 29 47 10z m389 -54 c-12 -31 -25 -54
-27 -51 -3 2 6 29 18 60 12 31 25 54 27 51 3 -3 -5 -30 -18 -60z m930 0 c-12
-31 -25 -56 -30 -56 -4 0 4 27 18 60 33 75 41 72 12 -4z m-154 31 c19 -5 19
-5 -2 -12 -29 -9 -31 -45 -3 -45 11 0 20 -5 20 -11 0 -6 -10 -9 -22 -7 -16 2
-24 11 -27 28 -1 14 -8 28 -13 31 -7 5 -6 12 3 22 8 8 16 11 19 7 3 -4 14 -10
25 -13z m-1767 -39 c-1 -37 -2 -39 -5 -10 -6 42 -33 44 -33 2 0 -16 -4 -30
-10 -30 -5 0 -10 18 -10 40 0 38 2 40 30 40 29 0 30 -2 28 -42z m87 7 c0 -21
-6 -33 -22 -40 -12 -5 -24 -16 -27 -25 -2 -8 -4 11 -5 43 -1 58 -1 58 27 55
23 -3 27 -8 27 -33z m48 23 c3 -10 7 -10 18 -1 12 10 14 5 14 -27 0 -30 -2
-36 -12 -28 -9 7 -17 7 -28 -2 -18 -15 -20 1 -3 18 9 9 9 15 0 24 -7 7 -12 16
-12 20 0 13 18 9 23 -4z m207 2 c0 -5 -9 -10 -20 -10 -29 0 -27 -37 3 -43 19
-3 20 -4 4 -11 -34 -16 -63 34 -35 62 15 15 48 16 48 2z m87 -6 c2 -6 -7 -10
-19 -10 -17 1 -24 -6 -29 -29 -6 -27 -7 -26 -8 13 -1 41 0 43 26 40 14 -2 28
-8 30 -14z m78 7 c3 -5 -5 -11 -17 -13 -31 -4 -29 -30 2 -39 22 -5 23 -7 7
-14 -21 -9 -47 10 -47 34 0 31 40 55 55 32z m250 -1 c3 -6 -4 -10 -17 -11
l-23 0 23 -11 c13 -6 21 -19 20 -27 -4 -18 -48 -29 -48 -12 0 6 10 11 23 12
l22 0 -22 11 c-29 14 -31 48 -4 48 11 0 23 -4 26 -10z m92 -6 c2 -6 -7 -10
-19 -10 -17 1 -24 -6 -29 -29 -6 -27 -7 -26 -8 13 -1 41 0 43 26 40 14 -2 28
-8 30 -14z m83 6 c0 -5 -9 -10 -20 -10 -29 0 -27 -37 3 -43 19 -3 20 -4 4 -11
-34 -16 -63 34 -35 62 15 15 48 16 48 2z m170 0 c0 -5 -9 -10 -20 -10 -29 0
-27 -37 3 -43 19 -3 20 -4 4 -11 -34 -16 -63 34 -35 62 15 15 48 16 48 2z m86
-16 c9 -34 -18 -64 -44 -48 -22 14 -27 41 -12 59 20 24 49 18 56 -11z m92 -19
c3 -41 -11 -41 -21 0 -4 15 -5 13 -6 -7 0 -16 -5 -28 -11 -28 -5 0 -11 12 -11
28 l-2 27 -4 -28 c-5 -34 -23 -25 -23 12 0 36 8 43 45 39 27 -3 30 -7 33 -43z
m78 20 c7 -27 -10 -55 -32 -55 -8 0 -14 -7 -14 -15 0 -8 -4 -15 -10 -15 -5 0
-10 25 -10 55 0 54 0 55 30 55 23 0 31 -5 36 -25z m79 -15 c0 -29 -4 -36 -22
-38 -30 -4 -53 39 -33 63 7 9 23 15 34 13 17 -2 21 -10 21 -38z m83 -2 c-1
-37 -2 -39 -5 -10 -5 38 -33 45 -33 8 0 -14 -4 -28 -10 -31 -6 -4 -10 10 -10
34 0 39 2 41 30 41 29 0 30 -2 28 -42z m90 15 c3 -19 -2 -23 -25 -24 l-28 -2
28 -4 c34 -5 36 -23 2 -23 -30 0 -46 27 -34 58 12 31 53 27 57 -5z m78 -18 c1
-32 1 -34 -3 -7 -5 38 -33 45 -33 8 0 -14 -4 -28 -10 -31 -6 -4 -10 10 -10 35
0 39 1 41 28 38 24 -3 27 -7 28 -43z m164 35 c0 -5 -8 -10 -17 -11 -14 0 -13
-3 5 -11 40 -20 16 -61 -25 -42 -15 6 -12 8 12 14 28 6 29 6 8 14 -29 9 -31
46 -3 46 11 0 20 -4 20 -10z m175 -30 c0 -31 -3 -35 -25 -35 -19 0 -26 6 -28
23 -5 36 5 54 30 50 19 -2 23 -9 23 -38z m92 24 c2 -6 -7 -10 -19 -10 -17 1
-24 -6 -29 -29 -6 -27 -7 -26 -8 13 -1 41 0 43 26 40 14 -2 28 -8 30 -14z m83
-4 c0 -12 -10 -24 -22 -30 -23 -9 -23 -9 -2 -9 12 -1 24 -7 27 -15 8 -20 -17
-38 -45 -34 -20 3 -22 8 -19 48 4 56 6 60 37 60 17 0 24 -5 24 -20z m78 -23
c3 -37 2 -38 -25 -35 -37 4 -39 39 -3 49 24 7 24 7 3 8 -13 1 -23 6 -23 12 0
6 10 9 23 7 18 -2 23 -10 25 -41z m90 -1 c2 -25 0 -36 -7 -31 -6 3 -11 18 -11
31 0 35 -23 26 -31 -12 -6 -25 -7 -23 -8 14 -1 42 0 43 27 40 24 -3 27 -8 30
-42z m62 14 c0 -16 5 -30 10 -30 6 0 10 -4 10 -10 0 -5 -13 -10 -30 -10 -16 0
-30 5 -30 10 0 6 7 10 15 10 21 0 19 30 -2 46 -17 12 -16 13 5 14 18 0 22 -5
22 -30z m100 20 c0 -5 -8 -10 -17 -10 -14 0 -13 -3 5 -16 18 -13 21 -19 11
-30 -13 -16 -49 -19 -49 -4 0 6 10 10 23 11 l22 0 -22 11 c-23 11 -29 28 -16
41 10 11 43 8 43 -3z m97 -35 c0 -22 -1 -29 -4 -15 -8 41 -23 48 -23 10 0 -35
-14 -32 -23 5 -3 14 -5 11 -6 -10 -1 -26 -3 -28 -12 -12 -6 10 -8 30 -5 43 6
21 12 25 39 22 30 -3 32 -6 34 -43z m73 35 c0 -5 -8 -10 -17 -10 -15 0 -15 -1
2 -14 23 -16 14 -46 -15 -46 -28 0 -26 20 3 21 l22 0 -22 11 c-23 11 -29 28
-16 41 10 11 43 8 43 -3z m-5476 -84 c8 3 17 0 22 -7 4 -7 3 -10 -3 -6 -6 4
-13 -2 -16 -13 -3 -11 -1 -23 4 -26 5 -3 9 -1 9 4 0 6 8 13 17 16 15 6 15 5
-1 -13 -21 -23 -49 -17 -41 9 3 9 -3 24 -15 35 -11 10 -20 23 -20 29 0 6 7 1
15 -11 9 -12 22 -20 29 -17z m196 -22 c23 -53 23 -54 10 -54 -5 0 -10 7 -10
15 0 9 -9 15 -25 15 -16 0 -25 -6 -25 -15 0 -8 -5 -15 -11 -15 -6 0 -8 9 -3
23 9 30 33 77 40 77 2 0 14 -21 24 -46z m-248 14 c-9 -9 -15 -9 -24 0 -9 9 -7
12 12 12 19 0 21 -3 12 -12z m338 -3 c18 -22 8 -60 -17 -63 -13 -2 -23 -10
-23 -18 0 -8 -4 -14 -10 -14 -5 0 -10 24 -10 53 0 48 2 53 24 55 13 1 29 -5
36 -13z m85 -25 c0 -29 -4 -36 -22 -38 -13 -2 -23 -10 -23 -18 0 -8 -4 -14
-10 -14 -11 0 -14 93 -3 104 4 4 19 6 33 4 21 -3 25 -8 25 -38z m66 -22 c-3
-23 -12 -43 -19 -44 -7 -1 -8 0 -2 3 5 2 10 28 10 56 0 30 4 47 8 39 5 -7 6
-31 3 -54z m57 55 c-23 -6 -23 -19 -1 -31 23 -13 9 -42 -19 -41 l-23 2 23 4
c27 5 28 10 0 32 -25 21 -17 42 15 40 17 -1 18 -2 5 -6z m45 -5 c3 -10 8 -9
22 2 17 14 18 14 6 -7 -8 -17 -9 -28 -1 -43 6 -12 7 -20 1 -20 -5 0 -12 6 -14
13 -4 9 -8 8 -16 -3 -5 -8 -13 -11 -17 -7 -4 3 -1 14 6 22 10 12 10 19 2 27
-7 7 -12 16 -12 20 0 13 18 9 23 -4z m-563 -18 c0 -5 -5 -10 -11 -10 -5 0 -7
5 -4 10 3 6 8 10 11 10 2 0 4 -4 4 -10z m-25 -20 c8 0 19 -9 25 -21 8 -13 17
-18 28 -14 13 5 14 4 5 -6 -10 -10 -16 -9 -28 1 -12 10 -19 10 -27 2 -16 -16
-25 -15 -32 4 -5 14 -4 15 7 5 11 -9 17 -8 27 4 10 13 9 15 -9 15 -14 0 -21 6
-20 18 0 10 3 12 6 5 2 -7 11 -13 18 -13z m85 -214 c0 -72 0 -72 -80 -71 l-55
0 -3 54 c-4 79 -2 81 73 81 l65 0 0 -64z m280 -5 c0 -41 -3 -51 -20 -56 -28
-9 -52 13 -48 44 2 18 10 27 26 29 12 2 22 10 22 18 0 8 5 14 10 14 6 0 10
-22 10 -49z m-173 -43 c-2 -13 -4 -3 -4 22 0 25 2 35 4 23 2 -13 2 -33 0 -45z
m91 25 c2 -19 -1 -33 -7 -33 -6 0 -11 14 -11 30 0 20 -5 30 -15 30 -10 0 -15
-10 -15 -30 0 -16 -4 -30 -10 -30 -5 0 -10 16 -10 36 0 34 1 35 33 32 28 -3
32 -7 35 -35z m160 15 c3 -14 -3 -18 -23 -18 -17 0 -25 -5 -22 -12 2 -7 12
-12 21 -12 9 1 16 -2 16 -7 0 -15 -37 -10 -50 6 -20 24 3 67 32 63 13 -2 24
-11 26 -20z m36 10 c5 -10 7 -10 12 0 3 6 10 12 15 12 5 0 4 -9 -3 -20 -10
-15 -10 -22 0 -32 20 -20 14 -33 -7 -14 -17 16 -19 16 -25 0 -4 -9 -9 -14 -13
-11 -3 4 0 13 6 21 9 11 10 20 1 35 -6 12 -7 21 -1 21 5 0 12 -6 15 -12z m90
-33 c-3 -50 -9 -65 -27 -65 -8 0 -8 3 1 12 7 7 12 31 12 55 0 24 4 43 8 43 5
0 7 -20 6 -45z m54 38 c-22 -6 -23 -19 -3 -27 8 -3 15 -12 15 -21 0 -21 -28
-31 -43 -15 -9 10 -9 11 1 6 25 -14 35 6 12 24 -26 20 -19 41 13 39 17 -1 18
-2 5 -6z m-1412 -146 c22 8 17 -4 -16 -35 -16 -16 -30 -34 -30 -39 0 -16 -59
-37 -102 -36 -46 1 -78 26 -78 60 0 24 1 24 89 21 92 -3 110 3 112 39 1 16 2
16 6 1 2 -10 10 -15 19 -11z m1058 -112 c1 -26 -3 -44 -9 -42 -12 4 -19 62
-10 84 9 26 18 6 19 -42z m-74 -4 c0 -44 -11 -70 -32 -77 -11 -3 -25 -1 -31 5
-8 8 -4 11 16 11 15 0 27 5 27 10 0 6 -3 9 -7 9 -44 -7 -64 30 -33 61 26 26
60 16 60 -19z m200 -8 c0 -19 -5 -43 -10 -54 -11 -20 -50 -27 -50 -9 0 6 3 9
8 9 17 -3 32 2 32 10 0 5 -10 11 -22 13 -29 4 -37 46 -13 64 29 21 55 6 55
-33z m78 -2 l-1 -36 -4 33 c-5 42 -35 40 -44 -3 -6 -29 -7 -29 -8 7 -1 27 3
38 17 40 31 8 42 -3 40 -41z m77 36 c13 -10 16 -21 12 -39 -9 -33 -35 -43 -58
-22 -23 21 -24 32 -2 56 19 22 24 22 48 5z m58 -4 c-7 -3 -13 -18 -13 -34 0
-16 -4 -29 -10 -29 -5 0 -10 15 -10 34 0 25 5 36 18 38 20 5 32 -3 15 -9z m71
1 c21 -20 12 -34 -22 -34 -28 0 -21 -14 13 -23 12 -3 8 -5 -10 -4 -24 2 -31 7
-33 26 -3 15 3 30 14 38 22 16 19 16 38 -3z m-454 -30 c0 -19 -4 -33 -8 -30
-12 7 -13 66 -1 66 5 0 9 -16 9 -36z m77 -16 c-2 -13 -4 -5 -4 17 -1 22 1 32
4 23 2 -10 2 -28 0 -40z m183 -169 c0 -6 -9 -8 -21 -4 -14 5 -20 3 -18 -7 4
-33 -2 -88 -10 -88 -12 0 -19 77 -8 95 9 17 57 21 57 4z m150 1 c0 -5 -4 -10
-10 -10 -5 0 -10 5 -10 10 0 6 5 10 10 10 6 0 10 -4 10 -10z m-537 -121 c-4
-4 -6 18 -3 49 l5 57 3 -49 c2 -27 0 -52 -5 -57z m77 91 c0 -5 -7 -7 -15 -4
-20 8 -19 -13 2 -24 23 -13 9 -42 -19 -41 -17 1 -18 2 -5 6 22 6 22 19 0 31
-21 12 -10 42 17 42 11 0 20 -4 20 -10z m54 0 c-40 -16 -37 -47 6 -63 11 -4 9
-6 -5 -6 -12 -1 -26 4 -33 11 -26 26 -6 69 33 67 20 0 20 0 -1 -9z m90 -12
c14 -23 -3 -52 -32 -56 -27 -4 -43 25 -31 56 10 27 46 27 63 0z m84 -23 c2
-30 0 -36 -8 -25 -5 8 -10 26 -10 38 0 35 -24 21 -28 -16 -4 -41 -17 -41 -20
-1 -3 40 5 51 36 47 24 -3 27 -8 30 -43z m82 -1 c0 -19 -4 -34 -10 -34 -5 0
-10 18 -10 41 0 24 4 38 10 34 6 -3 10 -22 10 -41z m78 -6 c-3 -51 -4 -53 -33
-55 -18 -1 -22 1 -10 4 30 8 43 23 19 23 -24 0 -44 18 -44 40 0 23 20 40 48
40 22 0 23 -3 20 -52z m72 7 c0 -45 -9 -65 -29 -64 -10 0 -11 2 -3 6 7 3 12
24 12 54 0 31 4 48 10 44 6 -3 10 -21 10 -40z m60 35 c0 -5 -7 -7 -15 -4 -20
8 -19 -6 2 -21 15 -11 19 -10 28 8 13 26 40 33 61 16 35 -29 -8 -85 -47 -61
-15 10 -24 10 -34 2 -8 -7 -22 -10 -32 -7 -14 4 -13 5 5 6 28 1 28 12 1 29
-16 11 -18 16 -9 28 14 16 40 19 40 4z m164 -6 c9 -24 7 -64 -3 -64 -6 0 -11
15 -13 33 -2 17 -7 32 -13 32 -5 0 -11 -15 -13 -32 -5 -47 -22 -41 -22 7 0 37
2 40 29 40 17 0 31 -6 35 -16z m-860 0 c11 -4 16 -19 16 -50 l0 -44 -48 0
c-27 0 -51 2 -53 4 -2 3 -3 25 -1 50 4 45 5 46 37 46 18 0 40 -3 49 -6z m601
-54 c3 -5 1 -10 -4 -10 -6 0 -11 5 -11 10 0 6 2 10 4 10 3 0 8 -4 11 -10z
m-659 -132 c4 -7 4 -10 -1 -6 -4 4 -17 1 -29 -7 -11 -8 -25 -15 -31 -15 -8 0
44 40 52 40 1 0 5 -6 9 -12z m394 -45 c0 -21 3 -24 12 -15 20 20 33 14 14 -7
-15 -16 -15 -19 -1 -31 8 -7 15 -17 15 -23 0 -5 -9 -2 -20 8 -11 10 -20 13
-20 7 0 -7 -4 -12 -9 -12 -5 0 -9 23 -9 50 -1 28 3 50 9 50 5 0 9 -12 9 -27z
m360 -23 c0 -27 -4 -50 -10 -50 -5 0 -10 23 -10 50 0 28 5 50 10 50 6 0 10
-22 10 -50z m190 23 c0 -21 3 -24 12 -15 20 20 33 14 14 -7 -15 -16 -15 -19
-1 -31 8 -7 15 -17 15 -23 0 -5 -9 -2 -20 8 -11 10 -20 13 -20 7 0 -7 -4 -12
-10 -12 -5 0 -10 23 -10 50 0 28 5 50 10 50 6 0 10 -12 10 -27z m-1013 -45
c-2 -13 -4 -5 -4 17 -1 22 1 32 4 23 2 -10 2 -28 0 -40z m57 10 c16 -11 36
-10 36 2 0 6 -9 10 -20 10 -11 0 -20 7 -20 15 0 9 9 15 23 14 20 0 21 -1 3 -8
-19 -7 -19 -8 3 -14 30 -7 22 -32 -10 -31 -13 1 -29 -6 -36 -15 -6 -9 -15 -13
-19 -8 -4 4 -2 7 4 7 7 0 13 16 13 38 1 21 3 29 6 17 3 -11 10 -23 17 -27z
m234 4 c4 -28 -16 -55 -35 -48 -8 3 -17 -4 -23 -17 -7 -17 -9 -9 -9 36 l-1 58
33 -3 c25 -2 33 -8 35 -26z m70 -9 c2 -24 -1 -33 -17 -38 -12 -3 -25 -3 -31 0
-17 11 -11 37 10 42 25 7 26 20 3 27 -11 3 -7 4 7 3 20 -2 26 -8 28 -34z m54
30 c-18 -4 -23 -10 -20 -31 2 -19 9 -27 21 -26 9 1 17 -2 17 -7 0 -13 -34 -11
-48 3 -26 26 -6 69 33 67 17 -2 17 -2 -3 -6z m158 -32 c0 -35 -2 -38 -27 -37
-34 1 -44 31 -14 41 26 8 27 22 4 28 -11 3 -7 5 10 6 25 1 27 -2 27 -38z m80
-10 c0 -35 -4 -51 -16 -55 -22 -9 -44 -7 -44 2 0 5 10 8 21 8 12 -1 24 4 26
11 3 7 -3 9 -16 6 -15 -4 -24 2 -32 21 -15 32 2 56 37 56 22 0 24 -4 24 -49z
m83 35 c7 -19 -1 -26 -31 -26 -21 0 -23 -2 -12 -15 7 -9 20 -13 29 -10 13 5
14 4 3 -7 -25 -25 -63 20 -48 58 7 18 52 18 59 0z m175 -17 c6 -49 -58 -65
-73 -18 -9 27 13 51 44 47 20 -2 27 -9 29 -29z m55 24 c-12 -2 -24 -11 -27
-20 -7 -18 12 -46 25 -37 5 3 9 0 9 -5 0 -16 -26 -13 -40 4 -7 8 -10 25 -6 40
5 20 12 25 34 24 22 -1 23 -3 5 -6z m147 -37 c0 -41 -22 -78 -37 -62 -3 3 -1
6 5 6 8 0 12 19 12 50 0 28 5 50 10 50 6 0 10 -20 10 -44z m48 37 c-24 -6 -23
-15 3 -31 16 -11 18 -16 9 -28 -14 -16 -40 -19 -40 -3 0 5 4 8 9 4 19 -11 19
12 0 28 -23 21 -17 37 14 36 17 -1 18 -2 5 -6z m97 -13 c7 -23 -10 -60 -30
-60 -17 0 -45 27 -45 44 0 36 64 50 75 16z m83 -17 c2 -19 -1 -33 -7 -33 -6 0
-11 14 -11 30 0 20 -5 30 -15 30 -11 0 -15 -11 -15 -36 0 -21 -4 -33 -10 -29
-5 3 -10 22 -10 41 0 34 1 35 33 32 28 -3 32 -7 35 -35z m-555 0 c-7 -2 -19
-2 -25 0 -7 3 -2 5 12 5 14 0 19 -2 13 -5z m297 -27 c0 -3 -4 -8 -10 -11 -5
-3 -10 -1 -10 4 0 6 5 11 10 11 6 0 10 -2 10 -4z m-1000 -16 c-8 -5 -19 -10
-25 -10 -5 0 -3 5 5 10 8 5 20 10 25 10 6 0 3 -5 -5 -10z m10 -125 c21 -11 30
-22 29 -38 -2 -22 -2 -22 -6 0 -2 11 -17 26 -33 33 -41 17 -80 -10 -80 -56 0
-47 30 -48 31 -1 0 25 2 28 8 13 4 -11 16 -23 27 -28 17 -8 17 -8 -3 -4 -15 2
-23 -2 -26 -16 -5 -16 -9 -18 -26 -8 -32 17 -29 73 7 99 33 25 35 25 72 6z
m370 -30 c0 -27 9 -32 28 -13 7 7 12 8 12 2 0 -5 -6 -16 -12 -22 -10 -10 -10
-17 0 -32 13 -22 3 -27 -16 -8 -9 9 -12 9 -12 0 0 -7 -4 -12 -10 -12 -5 0 -10
25 -10 55 0 30 5 55 10 55 6 0 10 -11 10 -25z m-393 -9 c-3 -8 2 -16 14 -19
10 -3 19 -11 18 -19 0 -10 -2 -10 -6 0 -2 6 -11 12 -18 12 -17 0 -28 17 -20
30 9 15 18 12 12 -4z m210 -8 c7 -6 13 -21 13 -34 0 -19 -7 -26 -29 -30 -17
-4 -32 -14 -34 -23 -3 -9 -5 9 -6 39 -1 51 1 56 21 57 12 1 28 -3 35 -9z m77
-4 c3 -9 6 -27 6 -40 0 -20 -5 -24 -30 -24 -23 0 -30 5 -30 19 0 11 9 23 20
26 11 3 20 11 20 17 0 5 -7 8 -15 4 -8 -3 -15 -1 -15 4 0 16 37 11 44 -6z m76
7 c0 -5 -8 -8 -17 -7 -12 1 -19 -7 -21 -26 -3 -21 2 -27 20 -31 21 -4 22 -4 2
-6 -33 -2 -49 24 -36 54 11 24 52 36 52 16z m138 -33 c3 -37 2 -38 -28 -38
-24 0 -31 4 -28 17 2 10 14 23 26 29 15 7 20 14 13 18 -6 4 -15 4 -21 1 -5 -3
-10 -1 -10 5 0 6 10 10 23 8 18 -2 23 -10 25 -40z m80 -10 c-3 -51 -4 -53 -33
-55 -18 -1 -22 1 -10 4 30 8 42 23 18 23 -11 0 -26 7 -33 15 -20 24 3 65 35
65 25 0 26 -2 23 -52z m80 30 c2 -11 -5 -18 -20 -20 -29 -4 -27 -21 4 -30 19
-6 18 -7 -7 -5 -23 2 -31 7 -33 25 -6 44 48 73 56 30z m58 -74 c-3 -8 -13 -14
-23 -14 -17 1 -17 1 0 11 12 7 18 24 19 57 l1 47 4 -44 c3 -24 2 -50 -1 -57z
m55 85 l-23 -9 23 -18 c26 -21 18 -43 -14 -41 -17 1 -18 2 -4 6 22 6 22 19 0
31 -22 13 -9 42 19 41 l23 0 -24 -10z m87 2 c8 -5 12 -21 10 -37 -3 -25 -7
-29 -33 -29 -24 0 -31 5 -33 23 -6 39 25 63 56 43z m89 -36 c2 -40 2 -40 -6
-7 -5 18 -11 36 -15 39 -9 10 -18 -3 -26 -39 l-8 -33 -1 41 c-1 39 1 41 27 40
24 -1 27 -5 29 -41z m-912 -180 c14 -13 25 -33 25 -45 0 -24 -42 -70 -64 -70
-57 0 -97 59 -68 102 9 12 21 26 26 30 21 15 57 7 81 -17z m885 -41 c0 -54 -1
-55 -26 -52 -54 6 -58 68 -5 76 11 2 21 10 21 18 0 8 2 14 5 14 3 0 5 -25 5
-56z m-707 32 c3 -7 1 -18 -5 -24 -7 -7 -6 -17 1 -31 19 -34 31 -24 31 24 0
43 1 45 28 44 23 -2 24 -2 5 -6 -27 -5 -31 -33 -5 -33 16 -1 16 -1 0 -11 -27
-15 -22 -39 7 -39 19 0 28 9 44 45 11 25 23 45 26 45 5 0 45 -85 45 -96 0 -2
-4 -4 -10 -4 -5 0 -10 7 -10 15 0 9 -9 15 -24 15 -13 0 -26 -7 -30 -15 -4 -10
-20 -15 -53 -15 -39 0 -51 5 -70 28 l-22 27 -1 -27 c0 -16 -4 -28 -10 -28 -5
0 -10 23 -10 50 0 48 1 50 29 50 16 0 31 -6 34 -14z m261 -2 c20 -19 20 -34 0
-62 -10 -14 -25 -22 -45 -22 -28 0 -29 1 -29 50 0 49 1 50 29 50 16 0 37 -7
45 -16z m65 -21 l19 -38 16 38 c22 51 36 46 36 -13 0 -27 -4 -50 -10 -50 -5 0
-10 12 -10 28 l-1 27 -16 -29 -16 -30 -18 35 -18 34 -1 -32 c0 -18 -4 -33 -10
-33 -5 0 -10 23 -10 50 0 28 4 50 10 50 5 0 18 -17 29 -37z m129 30 c-10 -2
-18 -11 -18 -19 0 -8 8 -15 18 -15 16 -1 16 -2 0 -6 -26 -7 -22 -41 5 -46 16
-3 13 -5 -10 -6 l-33 -1 0 50 c0 48 1 50 28 49 16 -1 20 -3 10 -6z m170 -58
c2 -22 0 -36 -5 -32 -4 5 -8 20 -8 34 0 15 -6 28 -12 30 -9 3 -13 -6 -13 -26
0 -16 -4 -33 -10 -36 -6 -4 -10 9 -10 30 0 47 -23 42 -30 -6 -6 -40 -19 -27
-18 19 1 31 1 31 52 29 l51 -2 3 -40z m-118 -25 c0 -5 -4 -10 -10 -10 -5 0
-10 5 -10 10 0 6 5 10 10 10 6 0 10 -4 10 -10z m-1454 -318 c24 -30 15 -31
-15 -1 -16 16 -36 29 -45 29 -8 0 -18 5 -21 11 -11 17 67 -20 81 -39z m-127
34 c-10 -9 -69 -36 -69 -32 0 7 52 35 64 36 5 0 7 -2 5 -4z m64 -50 c27 -20
20 -29 -8 -10 -34 22 -72 6 -78 -33 l-4 -28 -2 27 c-2 46 54 73 92 44z m-146
-26 c-7 -17 -13 -26 -15 -21 -3 10 15 51 22 51 3 0 -1 -14 -7 -30z m233 -87
c-11 -17 -11 -17 -6 0 3 10 7 31 7 45 l2 27 4 -27 c2 -15 -1 -35 -7 -45z
m-243 15 c-3 -7 -5 -2 -5 12 0 14 2 19 5 13 2 -7 2 -19 0 -25z m162 15 c-11
-13 -11 -17 -1 -20 7 -3 17 -14 23 -26 11 -22 11 -22 -10 1 -13 12 -34 22 -50
22 -16 0 -34 6 -41 14 -10 13 -7 13 19 3 26 -10 34 -9 48 6 22 22 30 22 12 0z
m-79 -27 c0 -2 -8 -10 -17 -17 -16 -13 -17 -12 -4 4 13 16 21 21 21 13z m-66
-22 c3 -8 2 -12 -4 -9 -6 3 -10 10 -10 16 0 14 7 11 14 -7z m201 -24 c-10 -11
-21 -18 -23 -15 -3 3 3 12 14 20 27 20 30 18 9 -5z m-162 -11 c4 -16 3 -18 -9
-8 -16 13 -19 29 -5 29 5 0 11 -9 14 -21z m122 -19 c-3 -5 -14 -10 -23 -9 -14
0 -13 2 3 9 27 11 27 11 20 0z m328 -112 c-14 -15 -29 -26 -31 -23 -3 3 4 16
16 28 l22 24 -20 18 c-11 10 -20 23 -20 28 0 6 14 -2 30 -18 l30 -29 -27 -28z
m177 58 c28 -35 -11 -93 -47 -70 -36 22 -23 84 17 84 10 0 23 -7 30 -14z m49
2 c-7 -59 16 -79 27 -23 6 34 8 35 50 35 24 0 44 -4 44 -10 0 -5 -4 -10 -10
-10 -5 0 -10 -16 -10 -35 0 -19 -4 -35 -10 -35 -5 0 -10 16 -10 35 0 45 -22
46 -35 3 -18 -60 -75 -41 -75 24 0 19 5 28 15 28 9 0 15 -6 14 -12z m161 -23
c0 -24 5 -35 15 -35 10 0 15 11 15 35 0 24 5 35 15 35 11 0 15 -12 15 -46 l0
-45 -42 3 c-43 3 -43 3 -46 46 -2 33 0 42 12 42 12 0 16 -10 16 -35z m113 13
l16 -23 0 23 c1 36 25 21 29 -18 5 -46 -14 -62 -37 -31 l-18 24 -6 -23 c-9
-34 -27 -14 -27 31 0 45 18 52 43 17z m107 12 c0 -5 -8 -11 -17 -11 -17 -1
-17 -2 0 -6 21 -5 23 -23 2 -23 -8 0 -15 -4 -15 -10 0 -5 7 -10 15 -10 8 0 15
-4 15 -10 0 -5 -11 -10 -25 -10 -23 0 -25 4 -25 45 0 41 2 45 25 45 14 0 25
-4 25 -10z"/>
<path d="M12240 7035 l0 -65 35 0 35 0 0 65 0 65 -35 0 -35 0 0 -65z"/>
<path d="M12430 7060 l0 -40 63 0 63 0 -1 40 0 40 -62 0 -63 0 0 -40z"/>
<path d="M964 7025 c-7 -18 3 -35 22 -35 8 0 14 10 14 25 0 27 -27 35 -36 10z"/>
<path d="M2910 7050 c0 -13 5 -20 13 -17 6 2 12 10 12 17 0 7 -6 15 -12 18 -8
2 -13 -5 -13 -18z"/>
<path d="M7697 7033 c-13 -12 -7 -43 7 -43 19 0 28 14 20 34 -7 17 -16 20 -27
9z"/>
<path d="M8086 7033 c-12 -12 -6 -43 9 -43 8 0 15 9 15 19 0 21 -13 34 -24 24z"/>
<path d="M648 7033 c7 -3 16 -2 19 1 4 3 -2 6 -13 5 -11 0 -14 -3 -6 -6z"/>
<path d="M1398 7033 c7 -3 16 -2 19 1 4 3 -2 6 -13 5 -11 0 -14 -3 -6 -6z"/>
<path d="M1508 7033 c7 -3 16 -2 19 1 4 3 -2 6 -13 5 -11 0 -14 -3 -6 -6z"/>
<path d="M1720 7015 c0 -18 5 -25 20 -25 15 0 20 7 20 25 0 18 -5 25 -20 25
-15 0 -20 -7 -20 -25z"/>
<path d="M2198 7033 c7 -3 16 -2 19 1 4 3 -2 6 -13 5 -11 0 -14 -3 -6 -6z"/>
<path d="M2642 7018 c5 -34 38 -37 38 -4 0 20 -5 26 -21 26 -15 0 -20 -5 -17
-22z"/>
<path d="M3398 7033 c7 -3 16 -2 19 1 4 3 -2 6 -13 5 -11 0 -14 -3 -6 -6z"/>
<path d="M3755 7000 c-3 -5 1 -10 9 -10 9 0 16 5 16 10 0 6 -4 10 -9 10 -6 0
-13 -4 -16 -10z"/>
<path d="M4148 7033 c7 -3 16 -2 19 1 4 3 -2 6 -13 5 -11 0 -14 -3 -6 -6z"/>
<path d="M4258 7028 c-7 -19 2 -38 18 -38 8 0 14 10 14 25 0 26 -24 35 -32 13z"/>
<path d="M6930 7000 c0 -5 4 -10 9 -10 6 0 13 5 16 10 3 6 -1 10 -9 10 -9 0
-16 -4 -16 -10z"/>
<path d="M7370 7000 c0 -5 4 -10 9 -10 6 0 13 5 16 10 3 6 -1 10 -9 10 -9 0
-16 -4 -16 -10z"/>
<path d="M7806 7025 c-8 -21 1 -35 20 -35 10 0 14 8 12 22 -4 27 -23 34 -32
13z"/>
<path d="M8007 7033 c-13 -12 -7 -43 7 -43 19 0 28 14 20 34 -7 17 -16 20 -27
9z"/>
<path d="M8160 7030 c0 -5 7 -10 16 -10 8 0 12 5 9 10 -3 6 -10 10 -16 10 -5
0 -9 -4 -9 -10z"/>
<path d="M237 6724 c-4 -4 -7 -40 -7 -81 l0 -73 65 0 65 0 0 54 c0 49 -2 53
-22 52 -16 -1 -24 6 -28 24 -4 19 -13 26 -36 28 -16 2 -33 0 -37 -4z"/>
<path d="M160 6580 l0 -80 65 0 c58 0 65 2 65 20 0 14 -7 20 -24 20 -49 0 -56
9 -56 66 0 51 -1 54 -25 54 -25 0 -25 -1 -25 -80z"/>
<path d="M910 6690 c0 -13 5 -20 13 -17 6 2 12 10 12 17 0 7 -6 15 -12 18 -8
2 -13 -5 -13 -18z"/>
<path d="M1030 6695 c-17 -21 -2 -50 26 -50 14 0 19 7 19 30 0 34 -24 45 -45
20z"/>
<path d="M1120 6696 c0 -9 7 -16 16 -16 17 0 14 22 -4 28 -7 2 -12 -3 -12 -12z"/>
<path d="M1255 6701 c-7 -12 12 -24 25 -16 11 7 4 25 -10 25 -5 0 -11 -4 -15
-9z"/>
<path d="M1160 6370 c0 -5 5 -10 10 -10 6 0 10 5 10 10 0 6 -4 10 -10 10 -5 0
-10 -4 -10 -10z"/>
<path d="M1245 6350 c-3 -5 -1 -10 4 -10 6 0 11 5 11 10 0 6 -2 10 -4 10 -3 0
-8 -4 -11 -10z"/>
<path d="M1290 6084 c0 -9 5 -14 12 -12 18 6 21 28 4 28 -9 0 -16 -7 -16 -16z"/>
<path d="M1470 6120 c0 -5 7 -10 15 -10 8 0 15 5 15 10 0 6 -7 10 -15 10 -8 0
-15 -4 -15 -10z"/>
<path d="M1674 6116 c-8 -22 3 -49 19 -43 6 2 12 14 12 27 0 27 -22 39 -31 16z"/>
<path d="M1787 6094 c-4 -4 -4 -10 -1 -15 6 -10 34 0 34 12 0 10 -24 12 -33 3z"/>
<path d="M1910 6120 c0 -5 7 -10 15 -10 8 0 15 5 15 10 0 6 -7 10 -15 10 -8 0
-15 -4 -15 -10z"/>
<path d="M1434 5386 c-8 -22 3 -49 19 -43 6 2 12 14 12 27 0 27 -22 39 -31 16z"/>
<path d="M1267 5380 c-7 -28 19 -47 31 -23 5 10 7 24 5 31 -7 19 -30 14 -36
-8z"/>
<path d="M1355 4869 c-4 -6 -5 -13 -2 -16 7 -7 27 6 27 18 0 12 -17 12 -25 -2z"/>
<path d="M1427 4891 c-7 -27 20 -51 34 -30 13 20 7 43 -12 47 -10 2 -19 -5
-22 -17z"/>
<path d="M1514 4896 c-8 -22 3 -49 19 -43 6 2 12 14 12 27 0 27 -22 39 -31 16z"/>
<path d="M1355 4629 c-4 -6 -5 -13 -2 -16 7 -7 27 6 27 18 0 12 -17 12 -25 -2z"/>
<path d="M1550 4660 c0 -5 7 -10 15 -10 8 0 15 5 15 10 0 6 -7 10 -15 10 -8 0
-15 -4 -15 -10z"/>
<path d="M177 4463 c-15 -15 -5 -23 29 -23 31 0 35 2 24 15 -13 16 -42 20 -53
8z"/>
<path d="M1564 4165 c-8 -21 3 -48 19 -43 19 7 22 58 2 58 -8 0 -18 -7 -21
-15z"/>
<path d="M1685 4170 c-3 -5 3 -10 15 -10 12 0 18 5 15 10 -3 6 -10 10 -15 10
-5 0 -12 -4 -15 -10z"/>
<path d="M1940 4170 c0 -5 7 -10 15 -10 8 0 15 5 15 10 0 6 -7 10 -15 10 -8 0
-15 -4 -15 -10z"/>
<path d="M1495 3690 c-3 -5 1 -10 10 -10 9 0 13 5 10 10 -3 6 -8 10 -10 10 -2
0 -7 -4 -10 -10z"/>
<path d="M1694 3686 c-8 -22 3 -49 19 -43 6 2 12 14 12 27 0 27 -22 39 -31 16z"/>
<path d="M1813 3663 c-18 -7 -16 -23 2 -23 8 0 15 7 15 15 0 8 -1 15 -2 14 -2
0 -9 -3 -15 -6z"/>
<path d="M1935 3690 c-3 -5 1 -10 10 -10 9 0 13 5 10 10 -3 6 -8 10 -10 10 -2
0 -7 -4 -10 -10z"/>
<path d="M1260 3421 c0 -11 -6 -22 -12 -24 -8 -3 -6 -6 5 -6 12 -1 17 7 17 24
0 14 -2 25 -5 25 -3 0 -5 -9 -5 -19z"/>
<path d="M1295 3420 c17 -19 17 -20 0 -20 -10 0 -16 -3 -12 -6 3 -4 13 -4 22
0 13 5 13 9 3 26 -7 11 -17 20 -22 20 -5 0 -1 -9 9 -20z"/>
<path d="M1555 3440 c-9 -15 5 -52 18 -47 19 6 21 57 3 57 -8 0 -18 -5 -21
-10z"/>
<path d="M1640 3440 c0 -5 7 -10 15 -10 8 0 15 5 15 10 0 6 -7 10 -15 10 -8 0
-15 -4 -15 -10z"/>
<path d="M1510 3186 c0 -31 14 -40 30 -21 15 18 6 45 -15 45 -9 0 -15 -9 -15
-24z"/>
<path d="M1594 3195 c-8 -21 3 -48 19 -43 19 7 22 58 2 58 -8 0 -18 -7 -21
-15z"/>
<path d="M1715 3200 c-3 -5 1 -10 9 -10 9 0 16 5 16 10 0 6 -4 10 -9 10 -6 0
-13 -4 -16 -10z"/>
<path d="M1892 3169 c2 -6 8 -10 13 -10 5 0 11 4 13 10 2 6 -4 11 -13 11 -9 0
-15 -5 -13 -11z"/>
<path d="M2020 3200 c0 -5 7 -10 15 -10 8 0 15 5 15 10 0 6 -7 10 -15 10 -8 0
-15 -4 -15 -10z"/>
<path d="M6970 3170 c0 -5 5 -10 10 -10 6 0 10 5 10 10 0 6 -4 10 -10 10 -5 0
-10 -4 -10 -10z"/>
<path d="M7280 3150 c0 -5 5 -10 10 -10 6 0 10 5 10 10 0 6 -4 10 -10 10 -5 0
-10 -4 -10 -10z"/>
<path d="M1354 2956 c-9 -22 2 -46 21 -46 12 0 15 8 13 27 -3 30 -25 42 -34
19z"/>
<path d="M1441 2931 c-10 -6 -10 -10 -1 -16 13 -8 24 -1 19 14 -3 6 -10 7 -18
2z"/>
<path d="M1517 2963 c-13 -12 -7 -53 7 -53 17 0 28 24 20 45 -7 16 -17 19 -27
8z"/>
<path d="M1595 2960 c-3 -5 3 -10 15 -10 12 0 18 5 15 10 -3 6 -10 10 -15 10
-5 0 -12 -4 -15 -10z"/>
<path d="M245 2880 c-3 -11 -13 -20 -21 -20 -8 0 -14 -10 -14 -24 0 -22 4 -23
56 -25 l55 -1 -3 33 c-2 24 -8 32 -21 30 -12 0 -16 4 -13 13 3 9 -1 14 -14 14
-10 0 -22 -9 -25 -20z"/>
<path d="M1139 2743 c-1 -5 -1 -11 0 -15 0 -5 -3 -8 -7 -8 -4 0 -8 -9 -8 -20
0 -24 13 -13 18 15 1 11 8 23 13 27 6 5 5 8 -2 8 -7 0 -14 -3 -14 -7z"/>
<path d="M1402 2693 c2 -17 9 -28 18 -28 9 0 16 11 18 28 3 22 -1 27 -18 27
-17 0 -21 -5 -18 -27z"/>
<path d="M1615 2710 c-3 -5 3 -10 15 -10 12 0 18 5 15 10 -3 6 -10 10 -15 10
-5 0 -12 -4 -15 -10z"/>
<path d="M6975 2500 c-3 -5 -4 -14 0 -20 8 -13 35 -1 35 16 0 16 -26 19 -35 4z"/>
<path d="M7406 2533 c-11 -11 -6 -23 9 -23 8 0 15 4 15 9 0 13 -16 22 -24 14z"/>
<path d="M7487 2534 c-8 -8 1 -24 14 -24 5 0 9 7 9 15 0 15 -12 20 -23 9z"/>
<path d="M7571 2531 c-20 -13 -5 -63 17 -59 9 2 18 13 20 24 4 25 -19 46 -37
35z"/>
<path d="M8160 2525 c0 -9 5 -15 11 -13 6 2 11 8 11 13 0 5 -5 11 -11 13 -6 2
-11 -4 -11 -13z"/>
<path d="M9595 2500 c-3 -5 -4 -14 0 -20 8 -13 32 -2 32 15 0 17 -23 20 -32 5z"/>
<path d="M4445 2510 c-3 -5 3 -10 15 -10 12 0 18 5 15 10 -3 6 -10 10 -15 10
-5 0 -12 -4 -15 -10z"/>
<path d="M6560 2489 c0 -24 23 -21 28 4 2 10 -3 17 -12 17 -10 0 -16 -9 -16
-21z"/>
<path d="M6642 2493 c5 -25 28 -28 28 -4 0 12 -6 21 -16 21 -9 0 -14 -7 -12
-17z"/>
<path d="M7062 2493 c2 -10 10 -18 18 -18 22 0 18 29 -3 33 -14 3 -18 -1 -15
-15z"/>
<path d="M8248 2503 c6 -2 18 -2 25 0 6 3 1 5 -13 5 -14 0 -19 -2 -12 -5z"/>
<path d="M9688 2503 c7 -3 16 -2 19 1 4 3 -2 6 -13 5 -11 0 -14 -3 -6 -6z"/>
<path d="M4027 2314 c-14 -14 -7 -35 11 -32 9 2 17 10 17 17 0 16 -18 25 -28
15z"/>
<path d="M5115 2310 c-4 -7 -3 -16 3 -22 14 -14 45 -2 40 15 -6 16 -34 21 -43
7z"/>
<path d="M5290 2300 c0 -15 5 -20 18 -18 9 2 17 10 17 18 0 8 -8 16 -17 18
-13 2 -18 -3 -18 -18z"/>
<path d="M5370 2300 c0 -13 7 -20 20 -20 13 0 20 7 20 20 0 13 -7 20 -20 20
-13 0 -20 -7 -20 -20z"/>
<path d="M5548 2313 c7 -3 16 -2 19 1 4 3 -2 6 -13 5 -11 0 -14 -3 -6 -6z"/>
<path d="M5960 2300 c0 -13 7 -20 20 -20 13 0 20 7 20 20 0 13 -7 20 -20 20
-13 0 -20 -7 -20 -20z"/>
<path d="M6135 2310 c3 -5 10 -10 16 -10 5 0 9 5 9 10 0 6 -7 10 -16 10 -8 0
-12 -4 -9 -10z"/>
<path d="M6138 2253 c6 -2 18 -2 25 0 6 3 1 5 -13 5 -14 0 -19 -2 -12 -5z"/>
<path d="M6228 2283 c7 -3 16 -2 19 1 4 3 -2 6 -13 5 -11 0 -14 -3 -6 -6z"/>
<path d="M1366 2233 c-11 -11 -6 -23 9 -23 8 0 15 4 15 9 0 13 -16 22 -24 14z"/>
<path d="M1448 2223 c-7 -25 1 -43 18 -43 9 0 14 11 14 30 0 33 -24 42 -32 13z"/>
<path d="M1534 2226 c-8 -22 3 -49 19 -43 6 2 12 14 12 27 0 27 -22 39 -31 16z"/>
<path d="M1190 1970 c0 -5 7 -7 15 -4 8 4 15 8 15 10 0 2 -7 4 -15 4 -8 0 -15
-4 -15 -10z"/>
<path d="M1210 1949 c0 -5 -4 -7 -10 -4 -5 3 -10 1 -10 -4 0 -6 7 -11 15 -11
8 0 15 7 15 15 0 8 -2 15 -5 15 -3 0 -5 -5 -5 -11z"/>
<path d="M1150 1940 c-13 -8 -12 -10 3 -10 9 0 17 5 17 10 0 12 -1 12 -20 0z"/>
<path d="M1464 1975 c-4 -8 0 -22 7 -31 12 -14 14 -14 25 1 7 9 10 23 7 31 -7
19 -32 18 -39 -1z"/>
<path d="M1550 1980 c0 -5 7 -10 15 -10 8 0 15 5 15 10 0 6 -7 10 -15 10 -8 0
-15 -4 -15 -10z"/>
<path d="M1297 1743 c-12 -11 -7 -41 7 -46 19 -7 26 1 26 30 0 22 -19 31 -33
16z"/>
<path d="M1500 1725 c0 -16 6 -25 15 -25 9 0 15 9 15 25 0 16 -6 25 -15 25 -9
0 -15 -9 -15 -25z"/>
<path d="M1660 1725 c0 -18 5 -25 20 -25 15 0 20 7 20 25 0 18 -5 25 -20 25
-15 0 -20 -7 -20 -25z"/>
<path d="M1800 1740 c0 -5 7 -10 15 -10 8 0 15 5 15 10 0 6 -7 10 -15 10 -8 0
-15 -4 -15 -10z"/>
<path d="M1424 1495 c-8 -21 2 -45 20 -45 19 0 29 29 15 46 -15 18 -28 18 -35
-1z"/>
<path d="M1677 1504 c-4 -4 -7 -18 -7 -31 0 -18 5 -24 18 -21 10 2 17 12 17
27 0 24 -15 37 -28 25z"/>
<path d="M1884 1496 c-8 -22 3 -49 19 -43 6 2 12 14 12 27 0 27 -22 39 -31 16z"/>
<path d="M1126 1471 c-4 -5 0 -12 6 -14 10 -4 9 -8 -2 -16 -13 -9 -13 -11 2
-11 13 0 17 7 16 25 -2 25 -12 32 -22 16z"/>
<path d="M1095 1440 c-3 -5 -1 -10 4 -10 6 0 11 5 11 10 0 6 -2 10 -4 10 -3 0
-8 -4 -11 -10z"/>
<path d="M1267 1248 c-6 -18 12 -50 24 -43 15 10 11 55 -5 55 -8 0 -16 -6 -19
-12z"/>
<path d="M1350 1214 c0 -14 3 -14 15 -4 8 7 15 14 15 16 0 2 -7 4 -15 4 -8 0
-15 -7 -15 -16z"/>
<path d="M1560 1214 c0 -14 3 -14 15 -4 8 7 15 14 15 16 0 2 -7 4 -15 4 -8 0
-15 -7 -15 -16z"/>
<path d="M1637 1253 c-13 -12 -7 -41 8 -47 18 -6 30 16 21 39 -6 16 -18 19
-29 8z"/>
<path d="M1715 1250 c-3 -5 3 -10 14 -10 12 0 21 5 21 10 0 6 -6 10 -14 10 -8
0 -18 -4 -21 -10z"/>
<path d="M1887 1253 c-12 -11 -7 -41 7 -46 19 -7 26 1 26 30 0 22 -19 31 -33
16z"/>
<path d="M2237 1253 c-12 -11 -7 -41 7 -46 19 -7 26 1 26 30 0 22 -19 31 -33
16z"/>
<path d="M1271 1006 c-13 -16 -4 -46 14 -46 18 0 26 37 10 50 -9 7 -16 6 -24
-4z"/>
<path d="M1351 981 c-10 -6 -10 -10 -1 -16 13 -8 24 -1 19 14 -3 6 -10 7 -18
2z"/>
<path d="M1565 979 c-10 -15 3 -25 16 -12 7 7 7 13 1 17 -6 3 -14 1 -17 -5z"/>
<path d="M1634 1006 c-8 -22 3 -49 19 -43 6 2 12 14 12 27 0 27 -22 39 -31 16z"/>
<path d="M1720 1010 c0 -5 7 -10 16 -10 8 0 12 5 9 10 -3 6 -10 10 -16 10 -5
0 -9 -4 -9 -10z"/>
<path d="M1921 1006 c-15 -18 -3 -48 18 -44 21 4 27 44 7 51 -8 3 -19 0 -25
-7z"/>
<path d="M1080 790 c0 -5 5 -10 10 -10 6 0 10 5 10 10 0 6 -4 10 -10 10 -5 0
-10 -4 -10 -10z"/>
<path d="M1077 745 c-3 -16 0 -24 7 -22 12 4 18 47 6 47 -4 0 -10 -11 -13 -25z"/>
<path d="M1977 774 c-4 -4 -7 -18 -7 -31 0 -18 5 -24 18 -21 10 2 17 12 17 27
0 24 -15 37 -28 25z"/>
<path d="M1270 785 c0 -8 7 -15 15 -15 8 0 15 7 15 15 0 8 -7 15 -15 15 -8 0
-15 -7 -15 -15z"/>
<path d="M1436 775 c-9 -23 -8 -25 9 -25 17 0 19 9 6 28 -7 11 -10 10 -15 -3z"/>
<path d="M1520 761 c0 -28 4 -41 14 -41 40 0 48 73 9 78 -21 3 -23 -1 -23 -37z"/>
<path d="M783 124 c-8 -21 13 -42 28 -27 13 13 5 43 -11 43 -6 0 -13 -7 -17
-16z"/>
<path d="M12670 7035 l0 -65 35 0 35 0 0 65 0 65 -35 0 -35 0 0 -65z"/>
<path d="M12783 2845 c0 -38 2 -53 4 -32 2 20 2 52 0 70 -2 17 -4 1 -4 -38z"/>
<path d="M12783 2595 c0 -38 2 -53 4 -32 2 20 2 52 0 70 -2 17 -4 1 -4 -38z"/>
</g>
</svg>
